<?xml version="1.0" encoding="UTF-8" standalone="no"?>
<!-- Created with Inkscape (http://www.inkscape.org/) -->

<svg
   version="1.1"
   id="svg1"
   width="1194.6667"
   height="1706.6667"
   viewBox="0 0 1194.6667 1706.6667"
   sodipodi:docname="12semaines_segmented.svg"
   inkscape:version="1.4.1-rc (06eac75fbf, 2025-03-29)"
   xmlns:inkscape="http://www.inkscape.org/namespaces/inkscape"
   xmlns:sodipodi="http://sodipodi.sourceforge.net/DTD/sodipodi-0.dtd"
   xmlns="http://www.w3.org/2000/svg"
   xmlns:svg="http://www.w3.org/2000/svg">
  <defs
     id="defs1" />
  <sodipodi:namedview
     id="namedview1"
     pagecolor="#ffffff"
     bordercolor="#666666"
     borderopacity="1.0"
     inkscape:showpageshadow="2"
     inkscape:pageopacity="0.0"
     inkscape:pagecheckerboard="0"
     inkscape:deskcolor="#d1d1d1"
     showgrid="false"
     inkscape:zoom="0.4816406"
     inkscape:cx="596.91811"
     inkscape:cy="853.33337"
     inkscape:window-width="1920"
     inkscape:window-height="1024"
     inkscape:window-x="0"
     inkscape:window-y="0"
     inkscape:window-maximized="1"
     inkscape:current-layer="g1" />
  <g
     inkscape:groupmode="layer"
     inkscape:label="Image"
     id="g1">
    <g
       id="g2"
       transform="matrix(0.84418875,0,0,0.84418875,15.79642,4.7758777)">
      <path
         style="display:inline;fill:#fd0000"
         d="m 739.00005,1705.2979 c -50.21331,-0.032 -56.05817,-0.2606 -59.66299,-2.3333 -2.19797,-1.2638 -4.96835,-3.3479 -6.15639,-4.6312 -1.18804,-1.2833 -3.1397,-2.3333 -4.33702,-2.3333 -1.27648,0 -2.17694,-1.0857 -2.17694,-2.6248 0,-1.9441 -0.60515,-2.3981 -2.33333,-1.7504 -2.04332,0.7658 -2.10589,0.5949 -0.50341,-1.3752 1.57657,-1.9381 1.53042,-2.2496 -0.33333,-2.2496 -1.18979,0 -2.16326,-0.6 -2.16326,-1.3334 0,-0.7333 -0.55827,-1.3333 -1.2406,-1.3333 -0.68233,0 -1.50062,1.35 -1.81842,3 l -0.57783,3 -0.18158,-3 c -0.12946,-2.139 -1.0426,-3.0253 -3.18157,-3.0882 -1.65,-0.049 -6.46129,-0.109 -10.69174,-0.1345 -5.76873,-0.035 -7.97378,-0.596 -8.81983,-2.2451 -0.62045,-1.2094 -0.85917,-2.9489 -0.53049,-3.8655 0.32869,-0.9167 -0.0524,-1.6667 -0.84683,-1.6667 -0.79445,0 -1.44445,-1.2354 -1.44445,-2.7453 0,-1.51 -0.6,-2.3746 -1.33333,-1.9214 -0.73333,0.4533 -1.33333,-0.4113 -1.33333,-1.9213 0,-1.5099 -0.6,-2.7453 -1.33334,-2.7453 -0.73333,0 -1.33333,-0.8358 -1.33333,-1.8574 0,-1.0215 -0.78803,-2.1597 -1.75118,-2.5293 -0.96314,-0.3696 -3.36314,-0.3638 -5.33333,0.013 -3.1112,0.5947 -3.58216,0.2485 -3.58216,-2.6336 0,-2.8404 -0.7682,-3.4412 -5.33333,-4.1712 -3.63685,-0.5816 -5.33334,-1.5294 -5.33334,-2.9797 0,-1.3428 -0.73733,-1.844 -2,-1.3595 -1.1,0.4222 -2,0.207 -2,-0.478 0,-0.685 -1.68475,-2.969 -3.7439,-5.0755 -2.207,-2.2577 -5.77031,-4.1588 -8.68028,-4.631 -2.71502,-0.4406 -5.73563,-1.6003 -6.71247,-2.5771 -0.97684,-0.9769 -1.62976,-2.7729 -1.45094,-3.9913 0.19245,-1.3113 -1.78602,-3.6123 -4.84839,-5.6389 -2.84543,-1.883 -5.69338,-3.4237 -6.32878,-3.4237 -0.6354,0 -2.24126,-1.2 -3.56857,-2.6666 -1.32732,-1.4667 -3.47124,-2.6667 -4.76427,-2.6667 -1.29303,0 -3.30004,-0.3642 -4.46002,-0.8093 -1.15997,-0.4451 -2.10905,-2.2451 -2.10905,-4 0,-1.7549 -0.6,-3.1907 -1.33333,-3.1907 -0.73333,0 -2.56402,-1.2307 -4.0682,-2.7349 -1.69479,-1.6948 -3.67615,-2.4361 -5.20995,-1.9493 -1.5652,0.4968 -3.64786,-0.3359 -5.66535,-2.2651 -1.75465,-1.6779 -2.98538,-4.001 -2.73495,-5.1625 0.31624,-1.4667 -0.47784,-2.0776 -2.59978,-2 -2.12822,0.078 -2.99892,-0.5961 -2.86992,-2.2215 0.10185,-1.2834 -0.22815,-2.3334 -0.73333,-2.3334 -0.50519,0 -1.63852,0.72 -2.51852,1.6 -1.24445,1.2445 -1.6,1.0752 -1.6,-0.7619 0,-1.299 -0.83341,-3.1953 -1.85203,-4.2139 -1.01861,-1.0186 -4.29075,-2.6131 -7.27143,-3.5434 -2.98067,-0.9303 -6.11585,-2.9927 -6.96706,-4.5832 -0.85122,-1.5905 -3.42907,-3.3316 -5.72857,-3.8691 -2.90117,-0.6781 -3.4667,-1.1579 -1.84758,-1.5673 1.28333,-0.3245 2.33333,-1.1865 2.33333,-1.9154 0,-0.729 -1.1688,-0.9545 -2.59734,-0.5011 -1.99154,0.6321 -3.14392,-0.2022 -4.9408,-3.5768 -1.28891,-2.4207 -2.2201,-4.8512 -2.06933,-5.4012 0.15078,-0.55 -0.30703,-1 -1.01735,-1 -0.71031,0 -0.94487,-0.9033 -0.52122,-2.0073 0.53397,-1.3915 -0.69276,-2.6185 -3.99902,-4 -2.62311,-1.096 -6.81509,-1.9927 -9.31552,-1.9927 -2.54032,0 -5.32724,-0.941 -6.31631,-2.1328 -0.97355,-1.1731 -1.63641,-3.8872 -1.47303,-6.0313 0.26578,-3.4881 -0.0361,-3.8149 -2.86817,-3.1041 -2.03057,0.5096 -3.95089,0.01 -5.3569,-1.3973 -1.20542,-1.2054 -2.19168,-3.9602 -2.19168,-6.1218 0,-3.3958 -0.40787,-3.8343 -3,-3.2248 -1.65,0.3879 -3.9,0.054 -5,-0.7428 -1.50649,-1.0908 -1.58874,-1.615 -0.33333,-2.1244 0.91667,-0.3719 1.66667,-1.2904 1.66667,-2.0411 0,-0.7507 -0.9,-1.0195 -2,-0.5974 -1.42047,0.5451 -2,-0.121 -2,-2.2987 0,-1.906 -1.26128,-3.7412 -3.33334,-4.8502 -1.83333,-0.9811 -3.33333,-2.5421 -3.33333,-3.4688 0,-0.9266 -1.27928,-2.0908 -2.84284,-2.5871 -1.89042,-0.6 -2.31597,-1.2279 -1.27022,-1.8742 1.18637,-0.7332 1.14777,-1.3171 -0.15716,-2.3774 -0.95138,-0.773 -2.88006,-1.6201 -4.28596,-1.8823 -1.4059,-0.2623 -2.82688,-1.2898 -3.15775,-2.2834 -0.44871,-1.3475 0.20083,-1.5566 2.55618,-0.8228 3.10623,0.9677 3.11763,0.9388 0.69914,-1.7702 -1.35223,-1.5146 -3.18167,-2.4765 -4.06542,-2.1373 -0.88374,0.3391 -2.96576,-1.8014 -4.6267,-4.7566 -1.66094,-2.9553 -3.58151,-5.3732 -4.26792,-5.3732 -0.68641,0 -1.62384,0.038 -2.08318,0.084 -0.45935,0.046 -1.50935,-1.2449 -2.33334,-2.8691 -0.82399,-1.6242 -2.67283,-3.612 -4.10852,-4.4174 -1.4357,-0.8053 -3.44398,-2.2296 -4.46284,-3.1651 -1.01886,-0.9355 -1.49635,-2.629 -1.06109,-3.7633 0.43526,-1.1342 0.17243,-3.2188 -0.58408,-4.6324 -0.7565,-1.4135 -2.46136,-2.57 -3.78856,-2.57 -1.32721,0 -3.49909,-1.2 -4.82641,-2.6667 -2.34933,-2.596 -2.32831,-2.6685 0.79335,-2.7366 l 3.20665,-0.07 -3,-2.0927 c -1.65,-1.151 -3,-2.5923 -3,-3.2028 0,-0.6106 -1.5,-2.6101 -3.33333,-4.4435 -3.32944,-3.3294 -3.33352,-3.3298 -3.49109,-0.3939 -0.1176,2.1912 -0.37375,1.9213 -1.00633,-1.0606 -0.65981,-3.1102 -1.66283,-4.0939 -4.50891,-4.4219 -2.62576,-0.3026 -3.66034,-1.1728 -3.66034,-3.0787 0,-1.4954 -0.6046,-2.2831 -1.38313,-1.802 -0.76072,0.4702 -3.76072,-1.5951 -6.66667,-4.5895 -2.90594,-2.9943 -5.28353,-6.6629 -5.28353,-8.1524 0,-1.5622 -1.26939,-3.2183 -3.00001,-3.9139 -1.65,-0.6633 -2.25,-1.2439 -1.33333,-1.2904 0.91667,-0.046 1.66667,-1.0056 1.66667,-2.1314 0,-1.1258 -0.92749,-3.4625 -2.06109,-5.1926 -1.37966,-2.1056 -2.91595,-2.922 -4.64674,-2.4694 -1.42211,0.3719 -3.64462,0.2681 -4.93891,-0.2305 -2.21663,-0.854 -2.20857,-0.9878 0.13885,-2.3054 1.81253,-1.0174 2.76696,-0.9541 3.5,0.232 0.7189,1.1632 1.26939,1.2077 1.91991,0.1551 0.50161,-0.8116 0.42661,-1.4849 -0.16667,-1.4961 -0.59328,-0.011 -0.17869,-0.602 0.92131,-1.3129 1.71673,-1.1094 1.67545,-1.2954 -0.29148,-1.3129 -1.358,-0.012 -2.01343,-0.745 -1.60892,-1.7992 0.41365,-1.0779 -0.25947,-1.7722 -1.70852,-1.7623 -1.31509,0.01 -5.19539,-0.091 -8.62288,-0.2212 l -6.2318,-0.2377 -0.43487,-10.6698 c -0.32814,-8.0513 -0.0126,-10.6691 1.28577,-10.6667 0.9983,0 0.29863,-1.5304 -1.66667,-3.6499 -1.86301,-2.0092 -3.38729,-4.122 -3.38729,-4.6953 0,-0.5732 -1.57974,-3.4293 -3.51052,-6.3469 -1.93078,-2.9176 -4.03078,-5.3048 -4.66667,-5.3048 -0.63588,0 -1.22714,1.35 -1.3139,3 -0.12318,2.3425 -0.35179,2.1233 -1.043,-1 -0.48688,-2.2 -0.42727,-4.1962 0.13247,-4.436 0.55974,-0.2398 -0.19392,-2.811 -1.67479,-5.7137 -1.63705,-3.2089 -3.28395,-4.9123 -4.2013,-4.3453 -1.00654,0.6221 -1.21,0.1538 -0.61122,-1.4066 0.49367,-1.2864 0.49213,-2.995 -0.003,-3.7969 -0.56165,-0.9087 -1.28125,-0.4868 -1.91061,1.1204 -0.83965,2.1441 -1.02539,1.9476 -1.10333,-1.1672 -0.0515,-2.06 -0.64247,-3.4062 -1.31317,-2.9917 -0.6707,0.4145 -1.52333,-10e-5 -1.89474,-0.9213 -0.51921,-1.2879 -0.69961,-1.2678 -0.78054,0.087 -0.0832,1.393 -0.50863,1.3585 -2.03165,-0.1645 -1.06231,-1.0623 -2.06435,-4.9501 -2.23398,-8.6676 -0.2394,-5.2467 -0.84691,-6.8822 -2.74028,-7.3773 -1.48524,-0.3884 -2.43269,-1.8581 -2.43269,-3.7736 0,-1.765 -1.25219,-3.9195 -2.86251,-4.9251 -2.18401,-1.3639 -2.44879,-2.0434 -1.1171,-2.8664 1.40118,-0.866 1.32711,-1.4971 -0.37558,-3.1997 -1.16655,-1.1666 -2.76386,-2.121 -3.54957,-2.121 -0.78572,0 -1.27857,-0.75 -1.09524,-1.6667 0.18333,-0.9167 -0.56667,-1.6667 -1.66667,-1.6667 -1.1,0 -2.30309,-1.5 -2.67354,-3.3333 -0.58914,-2.9156 -1.46632,-3.3843 -7,-3.7397 l -6.32646,-0.4064 -0.1329,-12.927 c -0.0731,-7.1098 -0.57622,-14.4269 -1.11804,-16.2602 -0.54182,-1.8334 -1.77153,-3.1535 -2.7327,-2.9337 -0.96116,0.2198 -2.62562,0.063 -3.69879,-0.3491 -1.56277,-0.5997 -1.62581,-1.1409 -0.31666,-2.7183 0.89902,-1.0833 2.16659,-1.6408 2.81683,-1.2389 0.65025,0.4019 1.18226,0.095 1.18226,-0.6814 0,-0.7766 -0.7,-1.412 -1.55555,-1.412 -0.85556,0 -1.19169,-0.3638 -0.74696,-0.8086 0.44473,-0.4447 -0.38843,-2.0934 -1.85146,-3.6638 -1.64128,-1.7617 -2.55129,-4.3883 -2.37606,-6.8581 0.1562,-2.2015 -0.6617,-6.1028 -1.81755,-8.6695 l -2.10155,-4.6666 -0.24489,4 -0.24488,4 -1.3901,-4.3334 c -0.76455,-2.3833 -2.2033,-4.3333 -3.19721,-4.3333 -1.24485,0 -1.80712,-1.8125 -1.80712,-5.8251 0,-5.7695 -0.0408,-5.8204 -4.27234,-5.3277 -3.33131,0.3879 -3.91867,0.1438 -2.66667,-1.1082 0.88312,-0.8831 1.60567,-3.2857 1.60567,-5.339 0,-2.9258 -0.61715,-3.7333 -2.8532,-3.7333 -2.65888,0 -2.80201,-0.4961 -2.10156,-7.2828 0.45222,-4.3816 0.12817,-8.6266 -0.81346,-10.6562 -1.19626,-2.5785 -2.57313,-3.376 -5.84236,-3.384 l -4.27725,-0.01 -0.38942,-10.3333 c -0.35979,-9.5473 -0.6165,-10.3656 -3.37483,-10.7575 -2.068,-0.2938 -3.33283,-1.7279 -4.11597,-4.6667 -0.82424,-3.093 -0.64756,-4.5314 0.65208,-5.3087 0.98045,-0.5865 1.78264,-3.1365 1.78264,-5.6667 0,-2.5302 -0.6,-4.6754 -1.33333,-4.7671 -0.73334,-0.092 -1.93334,-0.3166 -2.66667,-0.5 -0.73333,-0.1833 -1.93333,-0.4083 -2.66667,-0.5 -0.7545,-0.094 -1.33333,-4.4737 -1.33333,-10.088 0,-6.2365 -0.58977,-10.2858 -1.58798,-10.9027 -0.87339,-0.5398 -1.8216,-0.2805 -2.10714,0.5761 -0.36968,1.109 -1.0642,1.0124 -2.41202,-0.3354 -1.43504,-1.435 -1.91553,-6.1889 -1.98658,-19.6547 -0.0515,-9.7691 -0.50154,-16.8619 -1,-15.7619 -0.49845,1.1 -1.69498,2.1629 -2.65894,2.362 -1.33976,0.2767 -1.54535,-1.0205 -0.87269,-5.5062 0.8645,-5.7649 0.81912,-5.8564 -2.58067,-5.2065 l -3.46065,0.6615 v -20.6794 c 0,-17.1518 -0.34118,-20.8104 -2,-21.447 -1.41023,-0.5411 -1.99398,0.1049 -1.97958,2.1907 0.0166,2.3989 0.2648,2.58 1.31291,0.9582 1.04517,-1.6173 1.29641,-1.4259 1.31292,1 0.0148,2.1726 -0.7579,3 -2.80176,3 -2.16925,0 -2.66023,-0.6193 -2.12221,-2.6767 0.44594,-1.7052 -0.21955,-3.3207 -1.83373,-4.4513 -2.35549,-1.6499 -2.53904,-3.8508 -2.60979,-31.2934 -0.0634,-24.58304 -0.41551,-29.85822 -2.106,-31.54871 -1.11645,-1.11645 -3.48705,-2.02991 -5.268,-2.02991 -3.15873,0 -3.23809,-0.26144 -3.23809,-10.66667 0,-8.59259 0.38888,-10.66666 2,-10.66666 1.1,0 2.06357,-0.75 2.14128,-1.66667 0.0777,-0.91667 0.0517,-3.46667 -0.0577,-5.66667 -0.15496,-3.11541 0.10414,-3.5577 1.17163,-2 1.17885,1.7202 1.37346,1.67357 1.39102,-0.33333 0.0112,-1.28333 -0.45696,-2.33333 -1.0404,-2.33333 -0.58345,0 -1.20225,-2.1 -1.37511,-4.66667 -0.20612,-3.06074 0.27364,-4.67369 1.39416,-4.68709 1.2854,-0.0154 1.25054,-0.31039 -0.14078,-1.19151 -1.13518,-0.71889 -1.5927,-2.51296 -1.1849,-4.64625 0.39246,-2.05302 0.0579,-3.48351 -0.81745,-3.49557 -1.02419,-0.0141 -1.04563,-0.32292 -0.0694,-1 0.96167,-0.667 1.09987,-7.14887 0.43309,-20.31292 -0.5386,-10.63333 -1.01526,-34.93333 -1.05925,-54 -0.044,-19.06667 0.47961,-43.06667 1.16355,-53.33334 0.68394,-10.26666 1.35407,-22.86666 1.48917,-28 0.13509,-5.13333 1.44669,-20.13333 2.91464,-33.33333 1.46796,-13.2 3.18287,-24.33166 3.81091,-24.73702 0.62804,-0.40537 1.35293,-4.60537 1.61086,-9.33334 0.25794,-4.72797 0.82669,-9.49631 1.2639,-10.59631 0.43722,-1.1 1.41902,-7.1 2.18179,-13.33333 0.90077,-7.36115 0.94099,-13.2026 0.11473,-16.66667 -0.69967,-2.93334 -1.28644,-7.28334 -1.30393,-9.66667 -0.0254,-3.45505 0.50867,-4.33333 2.63485,-4.33333 2.19626,0 2.66667,-0.88889 2.66667,-5.03899 0,-3.36439 0.81577,-5.62696 2.45471,-6.80824 1.60714,-1.15836 2.24403,-2.87131 1.84456,-4.96101 -0.33558,-1.75547 -1.1402,-3.19176 -1.78804,-3.19176 -0.64784,0 -1.1779,-0.6 -1.1779,-1.33334 0,-0.73333 0.75,-1.33297 1.66667,-1.33253 1.06409,5.1e-4 1.612,-1.80724 1.51547,-5 -0.0832,-2.75044 0.1165,-5.71292 0.44368,-6.58328 0.32718,-0.87036 1.55324,-1.21472 2.72457,-0.76523 1.89267,0.72628 1.88039,0.4613 -0.11035,-2.38087 -1.23202,-1.75896 -2.24004,-3.73455 -2.24004,-4.3902 0,-0.65565 1.46449,-0.91214 3.25441,-0.56997 2.56488,0.4903 3.56661,-0.13159 4.7279,-2.9352 0.81042,-1.95652 1.62945,-5.01653 1.82007,-6.80001 0.19063,-1.78349 1.11058,-5.94271 2.04434,-9.24271 0.93376,-3.3 2.35457,-8.4 3.15736,-11.33333 0.80278,-2.93334 1.95528,-5.90334 2.5611,-6.6 0.60582,-0.69667 1.10149,-2.34667 1.10149,-3.66667 0,-1.32 -0.6,-2.4 -1.33333,-2.4 -0.73333,0 -1.33333,-2.4 -1.33333,-5.33333 0,-3.65211 0.58146,-5.33334 1.84456,-5.33334 1.01451,0 2.1254,-1.46911 2.46865,-3.26468 0.34324,-1.79558 0.0949,-3.79387 -0.55188,-4.44065 -0.67906,-0.67906 -0.65181,-2.53911 0.0645,-4.40198 1.08256,-2.81542 1.36044,-2.92904 2.1833,-0.89269 0.51858,1.28334 1.42593,2.33334 2.01635,2.33334 0.59042,0 1.47891,-2.39967 1.97442,-5.3326 0.49552,-2.93293 1.82531,-5.8499 2.95509,-6.48216 1.48627,-0.83176 1.62031,-1.41768 0.48485,-2.11944 -1.19949,-0.74132 -1.20137,-1.41321 -0.008,-2.85118 1.02239,-1.23189 1.11883,-2.45661 0.27939,-3.54796 -0.70508,-0.91667 -1.12729,-3.46667 -0.93825,-5.66667 0.18904,-2.2 0.4635,-4.3 0.60992,-4.66666 0.14642,-0.36667 0.18567,-1.14515 0.0872,-1.72996 -0.0984,-0.58481 0.8805,-0.88481 2.17544,-0.66667 1.64301,0.27678 2.48926,-0.61057 2.80066,-2.93671 0.36068,-2.69425 0.11783,-3.01379 -1.26667,-1.66666 -0.94209,0.91666 -2.25709,1.66666 -2.92222,1.66666 -0.66512,0 -0.89201,-0.82688 -0.50419,-1.83752 0.38782,-1.01064 0.002,-2.56252 -0.85735,-3.44861 -1.20672,-1.24427 -0.9553,-1.54988 1.1042,-1.34227 1.46666,0.14785 3.71666,0.19972 5,0.11528 1.66958,-0.10987 2.33333,-1.2914 2.33333,-4.15354 0,-2.2 0.6,-4 1.33333,-4 0.73334,0 1.37551,-1.35 1.42705,-3 0.0894,-2.86254 0.14622,-2.87781 1.23962,-0.33334 1.0934,2.54448 1.1502,2.5292 1.23962,-0.33333 0.0515,-1.65 0.69371,-3 1.42705,-3 0.73333,0 1.33333,-0.96419 1.33333,-2.14265 0,-1.30552 0.74148,-1.85812 1.89782,-1.41439 1.24136,0.47635 2.37492,-0.64032 3.27707,-3.22825 0.75859,-2.17608 1.04038,-4.83961 0.6262,-5.91895 -0.41418,-1.07933 -1.28887,-1.96243 -1.94374,-1.96243 -0.65488,0 -1.19068,-0.6 -1.19068,-1.33333 0,-0.73333 0.81679,-1.33333 1.8151,-1.33333 1.21493,0 1.64638,-1.21241 1.30483,-3.66667 -0.4779,-3.43406 -0.42661,-3.47635 0.8086,-0.66667 0.72538,1.65 1.97864,3 2.78502,3 0.85938,0 1.11588,-1.1036 0.61978,-2.66666 -0.60063,-1.89243 -0.2396,-2.66667 1.24348,-2.66667 1.62067,0 2.08985,-1.50609 2.08985,-6.70851 0,-4.73314 0.58892,-6.93451 2,-7.47599 1.10001,-0.42211 2.00001,-1.60328 2.00001,-2.62482 0,-1.02154 0.75,-1.86654 1.66666,-1.87777 1.12994,-0.0138 1.0226,-0.47591 -0.33333,-1.43484 -1.50508,-1.06441 -1.58757,-1.58177 -0.33333,-2.09069 0.91666,-0.37195 1.66666,-2.72627 1.66666,-5.23183 0,-3.62049 0.5312,-4.55555 2.58798,-4.55555 1.42339,0 3.01721,-0.69452 3.54183,-1.54337 0.65354,-1.05744 0.0486,-1.30664 -1.92131,-0.79149 -1.58134,0.41353 -2.87516,0.20804 -2.87516,-0.45664 0,-0.66467 1.2,-1.2085 2.66666,-1.2085 1.46667,0 2.74725,-0.75 2.84573,-1.66667 0.0985,-0.91667 0.13448,-4.36667 0.08,-7.66667 -0.0545,-3.3 0.21533,-4.91676 0.59959,-3.59281 0.6294,2.16856 1.0117,2.06942 3.85634,-1 1.73672,-1.87395 3.85052,-3.40719 4.69733,-3.40719 0.84681,0 1.19429,-0.9 0.77218,-2 -0.42211,-1.1 -0.1863,-2 0.52401,-2 0.71032,0 1.29149,-2.4263 1.29149,-5.39178 0,-3.53996 0.57242,-5.31745 1.66667,-5.17536 0.91666,0.11904 2.41666,0.14534 3.33333,0.0584 1.01962,-0.0966 1.66667,-2.16513 1.66667,-5.32805 0,-2.99403 0.85104,-5.87638 2.02201,-6.84819 1.1121,-0.92297 1.8621,-3.24643 1.66666,-5.16326 -0.29806,-2.92335 0.18198,-3.48514 2.97799,-3.48514 2.96837,0 3.37823,-0.62045 3.74333,-5.66667 0.26506,-3.66336 1.04582,-5.66667 2.20851,-5.66667 1.17105,0 1.56912,-1.04663 1.14101,-3 -0.53134,-2.42436 -0.37947,-2.61624 0.79149,-1 1.288,1.77778 1.59488,1.77778 2.76191,0 0.87795,-1.3374 1.31969,-1.44783 1.33334,-0.33333 0.0112,0.91667 0.66085,1.66667 1.4436,1.66667 0.81714,0 1.06222,-1.1373 0.57552,-2.67076 -0.50631,-1.59522 -0.0439,-3.47452 1.14824,-4.66667 1.09775,-1.09775 2.57458,-1.99591 3.28183,-1.99591 0.70726,0 1.65692,-0.9668 2.11036,-2.14845 0.57071,-1.48724 0.24653,-1.92669 -1.05332,-1.42789 -1.22134,0.46867 -2.09419,-0.41163 -2.49689,-2.51821 -0.34052,-1.78133 -0.15234,-3.23878 0.41819,-3.23878 0.57053,0 1.33996,0.75 1.70984,1.66667 0.36989,0.91666 0.71989,0.0521 0.77778,-1.92131 0.0579,-1.97339 0.70527,-3.9588 1.4386,-4.41203 0.73333,-0.45322 1.33333,0.37596 1.33333,1.84262 0,1.46667 0.6,3.03749 1.33334,3.49072 0.77939,0.48169 1.33333,-0.89363 1.33333,-3.3104 0,-2.29243 1.18893,-5.4106 2.66857,-6.99882 1.66229,-1.78425 2.14559,-3.18761 1.28167,-3.72154 -0.92657,-0.57265 -0.95919,-1.98218 -0.0983,-4.24654 0.93879,-2.46919 2.26093,-3.38937 4.86998,-3.38937 1.96973,0 4.04047,-0.74289 4.60163,-1.65087 0.79145,-1.2806 1.16906,-1.24322 1.68358,0.16667 0.3648,0.99964 0.61227,-0.58247 0.54993,-3.5158 -0.0623,-2.93334 0.37685,-6.98334 0.97599,-9 0.87101,-2.93173 0.65951,-3.66667 -1.05519,-3.66667 -1.1795,0 -2.14455,-0.97347 -2.14455,-2.16326 0,-1.72892 0.38445,-1.8442 1.91477,-0.57414 1.44619,1.20023 2.60908,1.21754 4.7519,0.0707 2.12362,-1.13652 3.2989,-1.13514 4.67329,0.006 1.46246,1.21374 2.51958,0.44129 5.19408,-3.79539 1.84685,-2.92561 3.93364,-5.6751 4.6373,-6.10998 0.70366,-0.43489 1.09772,-3.48533 0.87568,-6.77875 -0.3913,-5.80418 -0.28564,-5.98804 3.44131,-5.98804 2.11476,0 4.22793,0.0512 4.69594,0.11388 0.46801,0.0626 1.32614,-0.65504 1.90696,-1.59483 0.58082,-0.93978 0.47016,-2.80343 -0.24592,-4.14143 -0.71607,-1.33801 -0.9169,-3.05576 -0.44628,-3.81725 0.47062,-0.76148 2.44837,-1.19908 4.39499,-0.97244 3.37227,0.39262 3.5274,0.1446 3.28688,-5.2546 -0.22106,-4.96235 0.11039,-5.69277 2.66667,-5.87671 1.60551,-0.11553 3.6691,-0.1822 4.58577,-0.14815 0.91667,0.034 1.66667,-0.77144 1.66667,-1.78996 0,-1.01851 0.66504,-1.85185 1.47787,-1.85185 0.89346,0 1.16084,-1.26317 0.67616,-3.19432 -0.54278,-2.16258 -0.15881,-3.44103 1.18879,-3.95815 1.24515,-0.47781 1.99051,-2.52697 1.99051,-5.47235 0,-2.58968 0.54383,-4.70851 1.20851,-4.70851 0.66468,0 0.8947,1.2 0.51116,2.66666 -0.38989,1.49092 -0.0409,2.66667 0.79149,2.66667 0.81886,0 1.48884,-0.85957 1.48884,-1.91015 0,-1.05058 1.20064,-2.29122 2.66808,-2.75696 1.46745,-0.46575 3.2653,-1.96272 3.99522,-3.3266 0.72993,-1.36388 0.98839,-3.36255 0.57435,-4.4415 -0.41403,-1.07895 -0.0596,-2.39013 0.78763,-2.91375 0.84722,-0.52361 2.20813,-0.2843 3.02423,0.5318 0.8161,0.81611 1.96382,1.48383 2.55049,1.48383 0.58667,0 1.06667,-1.53541 1.06667,-3.41203 0,-2.06999 0.55748,-3.06748 1.41735,-2.53605 0.77954,0.48179 2.57954,-0.1758 4,-1.46129 1.42046,-1.2855 2.58265,-2.82544 2.58265,-3.4221 0,-0.59666 -0.9,-0.73948 -2,-0.31737 -1.10623,0.4245 -2,0.0384 -2,-0.86395 0,-1.01734 1.24362,-1.39369 3.30395,-0.99983 2.39679,0.45818 3.51973,-0.0483 4.08985,-1.84456 0.43224,-1.36189 1.2893,-2.47616 1.90456,-2.47616 0.61526,0 0.81047,-1.1785 0.4338,-2.61889 -0.37832,-1.44669 0.27434,-3.57809 1.45816,-4.7619 1.17866,-1.17866 2.14301,-3.90016 2.14301,-6.04778 0,-3.7228 0.272,-3.90476 5.83674,-3.90476 3.56162,0 6.48375,-0.77959 7.4966,-2 1.35943,-1.63801 1.26831,-2 -0.50341,-2 -1.18979,0 -2.16326,-0.675 -2.16326,-1.5 0,-0.92593 1.40329,-1.21828 3.66667,-0.76388 l 3.66666,0.73612 -0.45176,-7.90279 -0.45176,-7.90279 h 7.19692 c 4.58255,0 8.13711,-0.76606 9.7851,-2.10884 2.2099,-1.80063 2.24715,-2.00162 0.25484,-1.37518 -1.49607,0.4704 -2.33333,0.031 -2.33333,-1.22449 0,-1.07698 0.96419,-1.95815 2.14265,-1.95815 1.24362,0 1.85483,-0.75004 1.45669,-1.78758 -0.37728,-0.98317 -0.0958,-2.63317 0.62552,-3.66667 1.00662,-1.44227 1.46869,-1.49165 1.98775,-0.21242 0.37195,0.91667 1.89132,1.66667 3.37637,1.66667 2.24751,0 2.55309,-0.58574 1.82307,-3.4944 -0.80772,-3.21819 -0.60836,-3.42697 2.52212,-2.64127 2.52595,0.63398 3.39916,0.33283 3.39916,-1.17226 0,-1.11397 -1.05,-2.03459 -2.33333,-2.04582 -1.99407,-0.0175 -2.04253,-0.20835 -0.33334,-1.31292 1.1,-0.71087 2.45,-1.30169 3,-1.31292 0.55,-0.0112 1.04737,1.02959 1.10527,2.31292 0.0579,1.28333 0.39666,1.61704 0.75281,0.74157 0.35615,-0.87547 1.44809,-1.28457 2.42653,-0.9091 0.97845,0.37546 2.17509,0.0418 2.65922,-0.74157 0.48412,-0.78333 -0.0552,-1.42423 -1.19847,-1.42423 -1.14328,0 -2.07796,-0.45 -2.07706,-1 8.9e-4,-0.55 1.4207,-2.65 3.15513,-4.66667 1.73443,-2.01667 3.85481,-3.66667 4.71195,-3.66667 1.14594,0 1.18021,-0.70674 0.12946,-2.67009 -1.14004,-2.13018 -0.88276,-3.25641 1.27234,-5.56964 1.48573,-1.59474 3.11767,-2.4832 3.62652,-1.97435 0.50886,0.50886 0.21519,1.63519 -0.65258,2.50297 -0.86778,0.86778 -1.55954,2.50778 -1.53724,3.64445 0.0334,1.70124 0.28085,1.65409 1.39959,-0.26667 0.74747,-1.28333 2.22923,-2.33333 3.29279,-2.33333 1.06356,0 1.93374,-0.55 1.93374,-1.22223 0,-0.67222 -0.74864,-1.47176 -1.66364,-1.77677 -0.915,-0.305 0.885,-0.96209 4,-1.4602 5.19702,-0.83103 5.66364,-1.23391 5.66364,-4.88989 0,-3.49047 0.47045,-3.98425 3.79599,-3.98425 2.0878,0 4.99855,-1.05 6.46834,-2.33333 1.46979,-1.28333 2.51469,-3.38333 2.32199,-4.66667 -0.1927,-1.28333 0.23196,-2.33333 0.94369,-2.33333 0.71172,0 0.92322,-0.6 0.47,-1.33333 -0.45323,-0.73334 -0.18864,-1.33334 0.58797,-1.33334 0.77662,0 1.41203,0.62111 1.41203,1.38025 0,0.9185 0.92695,0.88415 2.77085,-0.10267 1.52397,-0.81561 3.62397,-1.15555 4.66667,-0.75543 1.04269,0.40012 1.89581,0.14632 1.89581,-0.56399 0,-0.71032 1.05,-1.33886 2.33333,-1.39675 1.39392,-0.0629 1.66233,-0.37603 0.66667,-0.77778 -0.91667,-0.36989 -1.66667,-1.42952 -1.66667,-2.35476 0,-0.92523 1.09725,-2.675228 2.43832,-3.888885 1.34108,-1.213658 2.88151,-2.20665 3.42319,-2.20665 0.54167,0 0.58765,1.251496 0.10217,2.781103 -0.7589,2.391102 -0.53778,2.592152 1.57682,1.433712 1.35273,-0.741061 3.48584,-2.571774 4.74024,-4.06825 1.31167,-1.564788 1.73657,-3.057183 1,-3.512404 -0.7044,-0.435347 -1.28074,-1.572927 -1.28074,-2.527955 0,-1.133209 1.15796,-1.515058 3.33334,-1.099208 1.9458,0.371963 3.33333,0.01749 3.33333,-0.851563 0,-0.818823 -1.05,-1.536138 -2.33333,-1.594032 -1.28334,-0.0579 -1.64703,-0.386663 -0.80821,-0.730597 0.83881,-0.343933 1.21884,-1.796565 0.84449,-3.22807 -0.59424,-2.272355 0.0584,-2.62279 5.14154,-2.760714 3.2022,-0.08689 6.62479,-0.0485 7.60577,0.0853 1.22386,0.166931 1.50948,-0.62035 0.91015,-2.50869 -0.72765,-2.292607 -0.30204,-2.751966 2.54974,-2.751966 1.88275,0 3.42319,0.55 3.42319,1.222223 0,0.672222 -0.75,1.490079 -1.66667,1.81746 -0.91667,0.327381 -1.16502,1.127381 -0.55189,1.777778 0.63203,0.670452 2.14816,-0.09203 3.50114,-1.760761 1.3125,-1.618815 2.71224,-2.617427 3.11053,-2.219138 0.39829,0.398289 1.39389,-0.527226 2.21244,-2.0567 0.81855,-1.529474 2.36716,-2.780862 3.44136,-2.780862 1.0742,0 1.95309,-0.926302 1.95309,-2.058449 0,-1.132147 0.77351,-1.882147 1.71892,-1.666667 0.94541,0.21548 4.18175,-1.558218 7.19187,-3.941551 3.01013,-2.383333 6.06994,-4.333334 6.7996,-4.333334 0.72965,0 1.24331,-1.05 1.14146,-2.333333 -0.13928,-1.754944 0.72371,-2.271111 3.48148,-2.082315 2.01667,0.13806 3.66667,-0.341275 3.66667,-1.06519 0,-0.723914 2.55,-2.473695 5.66667,-3.888402 3.11666,-1.414707 6.41666,-2.585372 7.33333,-2.601477 0.91667,-0.01611 1.66667,1.406524 1.66667,3.161399 0,1.754875 -0.9,3.536044 -2,3.958153 -1.1,0.42211 -2,2.286303 -2,4.142652 0,2.711303 0.65564,3.37518 3.33333,3.37518 1.83333,0 3.33333,0.6 3.33333,1.333334 0,0.752136 3.77778,1.333333 8.66667,1.333333 h 8.66667 v 5.333334 c 0,3.054533 0.63945,5.333333 1.49659,5.333333 1.00185,0 0.92,0.694758 -0.2476,2.101621 -1.44545,1.741665 -1.41632,2.312582 0.17008,3.333333 1.63048,1.04912 1.6385,1.409353 0.0541,2.430011 -1.49447,0.962705 -1.3634,1.306086 0.66667,1.746546 1.38978,0.301536 4.46933,-0.345232 6.84345,-1.437263 2.37413,-1.092032 4.67891,-1.623194 5.12175,-1.18036 0.44283,0.442833 0.45186,1.91826 0.0201,3.278726 -0.4318,1.360467 -2.73658,3.303701 -5.12175,4.318299 l -4.33666,1.844723 3.88562,0.55854 c 2.60025,0.373775 4.27616,-0.139345 5.06625,-1.551151 0.64935,-1.16033 2.05083,-2.109691 3.11439,-2.109691 1.06356,0 1.93375,-0.6 1.93375,-1.333333 0,-0.733334 1.2,-1.333334 2.66666,-1.333334 1.46667,0 2.66667,-0.6 2.66667,-1.333333 0,-0.733333 2.02653,-1.333333 4.50341,-1.333333 2.47687,0 5.25034,-0.9 6.16326,-2 0.91292,-1.100001 2.33638,-2.019962 3.16326,-2.04436 0.82687,-0.0244 2.8534,-1.170573 4.5034,-2.547057 1.65,-1.376483 3,-3.355134 3,-4.397001 0,-1.041867 -1.53907,-2.717993 -3.42017,-3.724724 -3.04307,-1.628605 -3.15333,-1.927092 -1,-2.707217 1.3311,-0.482239 5.27017,-1.296702 8.75351,-1.809917 4.70864,-0.693747 6.33333,-1.515135 6.33333,-3.201918 0,-1.247839 1.35,-2.861075 3,-3.58497 2.25807,-0.990669 2.89397,-2.222974 2.57125,-4.982838 -0.2781,-2.378228 0.19486,-3.666667 1.34594,-3.666667 0.97608,0 2.5241,-1.2 3.44005,-2.666667 0.91595,-1.466666 2.41027,-2.686628 3.32073,-2.711025 0.91045,-0.0244 3.00537,-1.170573 4.65537,-2.547057 1.65,-1.376484 3,-3.664717 3,-5.084962 0,-1.420245 1.2,-3.965875 2.66666,-5.656956 1.46667,-1.691081 2.66667,-4.130148 2.66667,-5.42015 0,-1.696787 1.47308,-2.594331 5.32635,-3.245337 2.92949,-0.494934 5.6649,-1.447673 6.07869,-2.117197 0.41378,-0.669524 1.61693,-1.217317 2.67365,-1.217317 1.05672,0 1.92131,0.556006 1.92131,1.235568 0,0.679562 -1.05,1.5107 -2.33333,1.846973 -1.28334,0.336273 0.12088,0.58566 3.12048,0.554194 2.9996,-0.03147 6.1195,0.354201 6.9331,0.857038 0.81361,0.502837 2.1305,-0.302556 2.92643,-1.789762 0.86984,-1.625304 2.79619,-2.704011 4.8288,-2.704011 2.82557,0 3.08801,0.293651 1.59595,1.785715 -0.98214,0.982142 -2.675,2.181411 -3.7619,2.665042 -1.08691,0.48363 0.8738,0.543295 4.35714,0.132588 5.17007,-0.609583 6.33333,-0.364387 6.33333,1.334958 0,1.144934 0.75,2.072664 1.66667,2.061622 0.91667,-0.01104 4.06667,-0.884705 7,-1.941476 2.93333,-1.056771 8.44792,-1.947737 12.25464,-1.979925 3.80673,-0.03219 7.26865,-0.620529 7.69318,-1.307425 0.42452,-0.686896 2.65212,-2.186896 4.95021,-3.333333 2.29808,-1.146438 4.72901,-2.084433 5.40206,-2.084433 0.67305,0 2.12372,-0.9 3.22372,-2 1.1,-1.1 3.12173,-2 4.49274,-2 1.37101,0 2.86356,-0.6 3.31679,-1.3333332 0.45322,-0.7333334 2.22444,-1.3333334 3.93603,-1.3333334 1.7116,0 3.45736,-0.9000001 3.87947,-2.0000001 0.42211,-1.1000001 1.62211,-2.0000001 2.66666,-2.0000001 1.04456,0 2.24456,0.9 2.66667,2.0000001 0.42211,1.1 1.72916,2.0000001 2.90456,2.0000001 1.1754,0 3.0426,0.9055148 4.14934,2.0122546 1.10674,1.106741 2.56388,1.671331 3.23809,1.254645 0.67422,-0.416687 1.18367,-0.272201 1.13213,0.321078 -0.0515,0.593279 -0.56276,2.278689 -1.13605,3.745356 -0.98265,2.513985 -1.10309,2.475815 -2.10357,-0.666667 -0.99444,-3.123532 -1.12162,-3.165492 -2.02061,-0.666666 -0.52766,1.466666 -0.65555,6.116667 -0.2842,10.333333 l 0.67518,7.666668 h -6.77316 c -3.72524,0 -7.06899,0.478647 -7.43054,1.063661 -0.36156,0.585013 -0.14888,1.88643 0.47262,2.892038 0.80768,1.306864 -0.0731,2.429637 -3.08798,3.936339 -4.18224,2.090103 -4.2213,2.203811 -4.6103,13.421303 -0.28449,8.203977 -0.92579,11.611886 -2.33333,12.399588 -1.06756,0.597435 -1.94101,1.60026 -1.94101,2.2285 0,0.628239 1.2,0.828446 2.66666,0.444904 1.85456,-0.484978 2.66667,-0.04091 2.66667,1.45816 0,1.18553 0.45,2.084456 1,1.997614 0.55,-0.08684 2.2,-0.0079 3.66667,0.175521 1.67322,0.209206 0.92814,0.69936 -2,1.315707 -4.19751,0.883536 -4.29805,0.999936 -1,1.157812 2.01666,0.09654 3.66666,0.761689 3.66666,1.478117 0,0.716428 -1.5,2.285434 -3.33333,3.48668 -1.83333,1.201247 -3.33333,3.015078 -3.33333,4.030738 0,1.367053 2.06683,1.846653 7.95815,1.846653 6.74938,0 7.83373,-0.324249 7.13897,-2.134747 -0.75114,-1.957441 -0.4763,-1.957441 3.30897,0 2.27048,1.174111 7.23757,2.134747 11.03797,2.134747 5.3511,0 7.45549,-0.629163 9.32878,-2.789089 1.33043,-1.534 3.05081,-2.39859 3.82306,-1.921311 0.77226,0.477278 1.4041,2.284149 1.4041,4.015267 0,2.600632 -1.21621,3.568153 -7,5.56866 -6.2146,2.149515 -6.57956,2.471548 -3.25271,2.870166 2.06102,0.246947 4.70859,-0.34436 5.8835,-1.314015 1.68228,-1.388391 2.25539,-1.408863 2.69715,-0.09634 0.30852,0.916667 1.97554,1.666667 3.70448,1.666667 1.72894,0 3.43935,0.478647 3.80091,1.063661 0.36156,0.585013 0.23003,1.755125 -0.29228,2.600248 -0.52232,0.845123 -2.43273,2.128444 -4.24536,2.851824 -3.1998,1.276974 -3.1696,1.317704 1.03764,1.399754 3.36322,0.0656 4.33334,0.66075 4.33334,2.65845 0,1.60917 -1.12447,2.79051 -3,3.15176 -2.82521,0.54416 -2.83655,0.5884 -0.1947,0.7594 1.54292,0.0999 4.42383,1.68158 6.40203,3.51491 1.9782,1.83333 4.46581,3.33333 5.52803,3.33333 1.42867,0 1.9313,1.73502 1.9313,6.66667 0,6.29518 0.19369,6.66667 3.47599,6.66667 2.54197,0 3.26976,0.5374 2.70851,2 -0.42211,1.1 -0.17677,2 0.5452,2 0.72196,0 1.19852,1.95 1.05901,4.33333 -0.13951,2.38333 -0.55255,4.89351 -0.91785,5.57816 -0.36531,0.68466 -1.11852,0.0847 -1.67381,-1.33333 -0.83304,-2.12726 -1.02601,-2.18526 -1.10333,-0.33163 -0.0516,1.23559 0.49143,3.78559 1.20662,5.66667 1.12643,2.96273 2.0923,3.42013 7.22222,3.42013 3.54954,0 6.14654,0.66768 6.48266,1.66667 0.30842,0.91666 0.28844,2.71666 -0.0444,4 -0.33284,1.28333 -1.13519,2.33333 -1.78299,2.33333 -0.6478,0 -1.17783,0.94043 -1.17783,2.08985 0,1.48308 0.77424,1.84412 2.66667,1.24348 1.89243,-0.60063 2.66667,-0.2396 2.66667,1.24349 0,1.14942 -0.67347,2.08985 -1.4966,2.08985 -1.03346,0 -1.07588,0.51576 -0.13707,1.66666 0.74774,0.91667 1.5712,4.81704 1.82993,8.6675 0.25872,3.85046 0.0204,7.00046 -0.5296,7 -0.55,-4.6e-4 -1.0598,-1.05083 -1.1329,-2.33416 -0.0854,-1.49909 -0.46031,-1.15894 -1.04863,0.95137 -0.54072,1.93954 -2.21071,3.5904 -4.0779,4.03118 -1.77735,0.41958 -3.32945,1.8862 -3.54414,3.34895 -0.21007,1.43136 0.33479,3.05814 1.21081,3.61507 0.87602,0.55693 -1.50724,1.02178 -5.29613,1.03301 -4.09179,0.0121 -7.10004,-0.61306 -7.40894,-1.53975 -0.38341,-1.15022 -2.84946,-0.97504 -9.38513,0.66667 -4.8758,1.22476 -10.65636,2.22683 -12.8457,2.22683 -2.18935,0 -4.27961,-0.48377 -4.64504,-1.07505 -0.36543,-0.59127 -2.84803,-0.82012 -5.51689,-0.50855 -4.36275,0.50933 -4.77129,0.8899 -4.04818,3.771 0.55049,2.19336 0.16286,3.45062 -1.22848,3.98453 -1.11801,0.42903 -2.03275,1.91585 -2.03275,3.30406 0,2.33799 -1.20379,2.52552 -16.33333,2.54443 -8.98334,0.0112 -17.23334,0.58934 -18.33334,1.2847 -1.1,0.69536 -2.075,1.88617 -2.16667,2.64625 -0.0917,0.76008 -0.24166,1.90449 -0.33333,2.54313 -0.0917,0.63864 -4.96667,1.57988 -10.83333,2.09163 -9.93683,0.86681 -10.66667,1.13814 -10.66667,3.96552 0,1.66928 -1.14604,4.0722 -2.54675,5.33983 -1.40071,1.26763 -2.94829,3.90461 -3.43905,5.85996 -0.49076,1.95535 -1.57619,3.97786 -2.41207,4.49446 -0.83587,0.5166 1.74216,0.914 5.72897,0.88312 4.12573,-0.032 7.45893,0.57441 7.7366,1.40742 0.26832,0.80496 2.83786,1.46356 5.71008,1.46356 5.17411,0 5.22222,0.0475 5.22222,5.158 v 5.15799 l 10.33333,0.90627 c 5.68334,0.49846 13.33334,1.1467 17.00001,1.44054 3.66666,0.29384 7.68605,0.2342 8.93196,-0.13253 1.31593,-0.38734 1.95463,-1.47635 1.52401,-2.59852 -0.57312,-1.49353 0.50095,-1.93174 4.73471,-1.93174 3.01179,0 5.47598,-0.6 5.47598,-1.33334 0,-0.73333 0.87932,-1.33333 1.95403,-1.33333 1.07472,0 3.79541,-1.8 6.04597,-4 2.25057,-2.2 4.67126,-4 5.37931,-4 0.70805,0 1.28736,-0.61287 1.28736,-1.36192 0,-0.74906 -1.5,-2.04536 -3.33333,-2.88069 -1.83334,-0.83532 -3.33334,-1.92748 -3.33334,-2.42703 0,-0.49954 2.4,-1.62732 5.33334,-2.50617 2.93333,-0.87885 5.33333,-2.17382 5.33333,-2.87771 0,-0.7039 0.94286,-1.27982 2.09524,-1.27982 1.15238,0 2.95238,-0.85714 4,-1.90476 1.04762,-1.04762 1.90476,-2.84762 1.90476,-4 0,-1.49795 1.30508,-2.09524 4.57811,-2.09524 4.00103,0 4.63128,-0.46138 5,-3.66033 0.32119,-2.78665 1.2914,-3.82098 4.06472,-4.33334 2.00356,-0.37015 4.86042,-1.72299 6.34858,-3.00633 1.48816,-1.28333 4.07888,-2.33333 5.75717,-2.33333 1.67828,0 3.84642,-0.75 4.81809,-1.66667 1.41333,-1.33333 1.88889,-1.33333 2.37778,0 0.33611,0.91667 2.06111,1.66667 3.83333,1.66667 2.33334,0 3.22223,0.73563 3.22223,2.66667 0,1.46666 0.85811,2.66666 1.90692,2.66666 1.48485,0 1.65301,0.88536 0.75974,4 -1.04552,3.64552 -0.8659,4 2.02687,4 2.88994,0 3.25506,0.71609 4.07915,8 l 0.90509,8 4.82778,0.0204 c 3.60788,0.0153 4.32241,0.34701 2.82778,1.31292 -1.2649,0.81744 -1.4028,1.3 -0.37518,1.31291 0.89365,0.0112 1.294,0.88254 0.88966,1.93623 -0.40435,1.0537 -1.58552,1.5895 -2.62483,1.19068 -1.24059,-0.47606 -1.88965,0.18641 -1.88965,1.92868 0,1.5343 1.12726,2.9486 2.67217,3.3526 1.78261,0.46616 2.40091,1.40566 1.85735,2.82218 -0.44815,1.16786 -0.28699,2.12339 0.35813,2.12339 0.64513,0 1.17296,2.31673 1.17296,5.14829 v 5.14829 l -8.57319,0.23586 c -4.71525,0.12972 -9.11979,0.57368 -9.78786,0.98657 -0.66808,0.4129 -0.89262,1.59003 -0.49897,2.61585 0.51469,1.34126 -0.48966,1.91508 -3.57577,2.04296 -2.36032,0.0978 -6.30576,0.28722 -8.76764,0.42094 -2.61189,0.14186 -4.99958,1.17843 -5.73292,2.48884 -0.79952,1.42867 -2.93054,2.24573 -5.85718,2.24573 -2.53023,0 -4.60042,0.55827 -4.60042,1.2406 0,0.68233 -1.30961,1.43233 -2.91024,1.66666 -1.92495,0.28182 -3.26426,1.75762 -3.95591,4.35905 -0.57512,2.16314 -0.83419,4.14446 -0.57571,4.40293 0.25847,0.25848 3.23863,0.69557 6.62258,0.97132 3.38394,0.27574 6.15262,-0.0556 6.15262,-0.73627 0,-0.68069 3.9,-1.23762 8.66666,-1.23762 4.88889,0 8.66667,-0.5812 8.66667,-1.33334 0,-0.73333 1.72653,-1.33333 3.83674,-1.33333 2.11021,0 4.58368,-0.9 5.4966,-2 0.91291,-1.1 2.73638,-2 4.05214,-2 1.31577,0 2.5923,-0.51399 2.83674,-1.1422 0.24445,-0.62821 2.6854,-1.5537 5.42434,-2.05664 4.23945,-0.77848 4.85741,-0.59528 4.15617,1.23214 -0.45305,1.18063 -0.0426,3.60612 0.91208,5.38998 0.95469,1.78386 2.47551,3.24339 3.37958,3.24339 1.0253,0 2.00421,3.13545 2.60172,8.33333 0.52686,4.58333 1.47062,8.65938 2.09724,9.05788 0.62662,0.3985 1.40988,2.1985 1.74057,4 0.33069,1.8015 0.64584,4.92545 0.70034,6.94212 0.0575,2.12889 0.84935,3.66667 1.88803,3.66667 0.98392,0 2.508,2.4 3.38685,5.33333 1.30142,4.34373 2.20648,5.33334 4.87772,5.33334 3.20848,0 3.27981,0.22997 3.27981,10.57393 0,9.93556 0.1803,10.59965 2.98638,11 1.64998,0.2354 3.20035,1.5479 3.46453,2.93296 0.26298,1.3788 -0.10443,2.8788 -0.81645,3.33334 -0.79463,0.50727 -0.22659,4.43087 1.47089,10.15977 1.52101,5.13333 3.24454,9.53333 3.83006,9.77778 0.58553,0.24444 1.06459,1.59444 1.06459,3 0,1.83703 -0.9372,2.55555 -3.33333,2.55555 -1.83333,0 -3.33333,-0.6 -3.33333,-1.33333 0,-0.73334 -1.35,-1.38745 -3,-1.45359 -2.31269,-0.0927 -2.00722,-0.40691 1.33333,-1.37145 2.45621,-0.70921 4.33333,-2.13514 4.33333,-3.29177 0,-1.15766 -0.64141,-1.64416 -1.4824,-1.12439 -0.81532,0.50389 -1.93233,0.18818 -2.48223,-0.70158 -0.74687,-1.20846 -2.26048,-1.26967 -5.98264,-0.24193 -3.46233,0.956 -7.1572,0.93914 -12.10857,-0.0552 -7.10431,-1.42675 -7.14302,-1.41628 -12.85796,3.47549 -3.44467,2.94851 -6.66747,4.66196 -8.07586,4.29366 -1.63075,-0.42645 -2.34367,0.16032 -2.34367,1.92896 0,1.82241 0.94345,2.54184 3.33333,2.54184 2.07407,0 3.33333,0.75555 3.33333,2 0,1.24444 -1.25926,2 -3.33333,2 -1.83333,0 -3.33333,0.6 -3.33333,1.33333 0,0.73333 -0.6,1.33333 -1.33334,1.33333 -0.73333,0 -1.33333,-1.5 -1.33333,-3.33333 0,-1.83333 -0.6,-3.33333 -1.33333,-3.33333 -0.73334,0 -1.33334,0.6 -1.33334,1.33333 0,0.73333 -0.975,1.33333 -2.16666,1.33333 -1.71556,0 -1.99317,0.86753 -1.33334,4.16667 0.45834,2.29167 0.83334,4.95124 0.83334,5.91015 0,0.95892 1.05041,2.07687 2.33425,2.48435 1.28384,0.40747 3.15902,2.60412 4.16705,4.88144 1.00804,2.27731 3.53741,5.88436 5.62081,8.01565 2.08341,2.13129 4.42934,3.87508 5.21319,3.87508 0.78385,0 2.86403,0.94277 4.62262,2.09504 2.37111,1.55361 4.78064,1.85763 9.32351,1.17638 4.08966,-0.61328 6.59288,-1.79089 7.53035,-3.54257 0.77235,-1.44315 1.68524,-2.34294 2.02864,-1.99954 0.3434,0.3434 3.05396,0.0785 6.02347,-0.58874 2.96951,-0.6672 6.23821,-2.0522 7.26378,-3.07777 1.02557,-1.02556 1.53259,-2.73004 1.12672,-3.78772 -0.4749,-1.23757 1.02097,-2.96083 4.19651,-4.83445 2.71395,-1.60127 5.79764,-2.58016 6.85265,-2.17531 1.05501,0.40484 1.64625,1.48577 1.31386,2.40205 -0.33239,0.91628 0.22409,3.70447 1.2366,6.19598 1.01252,2.49151 2.82625,5.25049 4.0305,6.13106 1.20426,0.88058 1.75916,2.29744 1.23313,3.14858 -0.52604,0.85115 -0.57727,2.74217 -0.11385,4.20227 0.46342,1.46011 1.85214,2.65942 3.08606,2.66514 1.23392,0.006 2.99348,1.62534 3.91015,3.59916 0.91667,1.97381 1.66667,4.36404 1.66667,5.31163 0,0.94758 1.2,2.47229 2.66666,3.38824 1.46667,0.91595 2.66667,2.42103 2.66667,3.34463 0,0.9236 -0.52149,1.67927 -1.15888,1.67927 -0.63738,0 -1.5197,2.22353 -1.96071,4.94117 -0.49882,3.07382 -0.10201,6.34402 1.04999,8.65325 1.0185,2.04164 2.24699,5.51124 2.72996,7.71021 0.48298,2.19897 1.43198,4.34042 2.1089,4.75877 0.6769,0.41836 1.2307,2.18238 1.2307,3.92006 0,1.73767 0.7716,3.95226 1.7147,4.92131 0.9431,0.96905 1.8623,3.83834 2.0426,6.3762 0.1803,2.53786 0.8057,4.93787 1.3897,5.33333 0.5841,0.39547 2.0649,2.76122 3.2908,5.25722 1.2259,2.49601 2.2289,5.32717 2.2289,6.29149 0,1.0107 -0.8471,1.42825 -2,0.98583 -1.2763,-0.48974 -2,0.023 -2,1.41703 0,1.20147 0.9,2.52986 2,2.95197 1.1,0.42211 2,1.60328 2,2.62482 0,1.02154 0.9,1.85735 2,1.85735 1.4444,0 2,1.48148 2,5.33333 v 5.33333 h 6 c 3.3,0 6,0.6 6,1.33334 0,0.73333 -0.9,1.33333 -2,1.33333 -1.1,0 -2,0.55 -2,1.22222 0,0.67223 0.75,1.52655 1.6666,1.8985 1.2543,0.50892 1.1718,1.02628 -0.3333,2.09069 -1.2039,0.85141 -1.3743,1.42255 -0.4281,1.43484 0.8786,0.0114 1.5755,1.93164 1.5801,4.35375 0,2.38334 0.1472,5.38334 0.317,6.66667 0.1699,1.28333 0.7338,2.33333 1.2532,2.33333 0.5195,0 1.388,1.95 1.9302,4.33334 0.9747,4.28484 0.9974,4.29603 2.0337,1 1.0042,-3.19366 1.0537,-3.20763 1.181,-0.33334 0.073,1.65 0.7979,3 1.6108,3 0.9236,0 1.1534,1.29275 0.6128,3.44673 -0.4758,1.89569 -0.4866,4.63909 -0.024,6.09642 0.4993,1.57302 1.6047,2.35663 2.7205,1.92846 1.2376,-0.47491 1.8796,0.20519 1.8796,1.99123 0,1.49186 0.6277,3.88543 1.395,5.31904 0.7672,1.43361 0.9393,3.34381 0.3824,4.24488 -0.5569,0.90107 -0.8245,3.43867 -0.5946,5.63911 0.2298,2.20044 0.8649,4.3008 1.4113,4.66747 0.5464,0.36666 1.3455,2.89801 1.7758,5.62522 0.4303,2.7272 2.023,6.29034 3.5395,7.91808 1.5165,1.62774 2.7572,4.3818 2.7572,6.12014 0,1.73833 0.5328,2.83132 1.184,2.42885 0.6512,-0.40246 1.5453,1.21213 1.9868,3.58798 0.4416,2.37585 1.0337,5.73795 1.316,7.47134 0.2822,1.73339 1.2756,3.62283 2.2075,4.19877 0.9319,0.57593 1.3257,2.00771 0.8752,3.18172 -0.4665,1.21567 -0.1196,2.19272 0.8057,2.26966 0.8937,0.0743 3.5748,0.0283 5.9582,-0.10216 4.018,-0.21998 4.3333,0.067 4.3333,3.9436 0,2.29946 -0.4519,3.90158 -1.0041,3.56026 -0.5523,-0.34133 -1.1118,2.16059 -1.2434,5.55981 -0.1315,3.39922 0.3242,6.8592 1.0127,7.68884 0.6886,0.82964 3.353,1.34174 5.9209,1.13799 2.5843,-0.20506 4.3313,0.17583 3.9127,0.85305 -0.4159,0.67294 0.2197,1.22352 1.4124,1.22352 1.5617,0 1.9317,0.74614 1.3221,2.66666 -0.5312,1.6739 -0.2396,2.66667 0.7835,2.66667 1.1264,0 0.9984,0.72075 -0.4143,2.33333 -1.1243,1.28334 -1.8155,3.71987 -1.536,5.41451 0.2795,1.69465 0.028,2.78424 -0.5595,2.42131 -0.5872,-0.36292 -1.939,-0.10864 -3.004,0.56508 -1.5548,0.98361 -1.411,1.23298 0.7303,1.26577 1.7818,0.0273 2.1265,0.38407 1.0387,1.07523 -1.0619,0.67466 -1.349,2.75424 -0.8256,5.97959 0.4414,2.71985 1.324,4.94518 1.9614,4.94518 0.6374,0 1.1589,2.03002 1.1589,4.51116 0,3.50407 -0.6443,4.67964 -2.886,5.26585 -2.4375,0.63744 -2.6193,1.07589 -1.17,2.82217 1.2595,1.51762 1.2955,2.06749 0.1354,2.06749 -0.8692,0 -1.4736,1.05 -1.343,2.33333 0.1305,1.28334 0.159,2.93334 0.063,3.66667 -0.096,0.73333 -0.7556,0.43333 -1.4665,-0.66667 -1.0452,-1.61728 -1.2964,-1.42591 -1.3129,1 -0.017,2.43991 -0.7672,3 -4.0204,3 -2.2,0 -4,-0.53698 -4,-1.19328 0,-0.65631 -2.4351,-1.42551 -5.4113,-1.70934 -3.4812,-0.33199 -5.9474,0.12988 -6.9143,1.29491 -0.992,1.19532 -1.0458,2.11636 -0.1581,2.70933 0.7397,0.49411 1.741,1.9711 2.2251,3.28219 0.5173,1.40079 0.2023,2.60511 -0.7639,2.92046 -0.9043,0.29516 -4.3442,0.84196 -7.6442,1.21511 -3.3,0.37314 -6.8142,0.70894 -7.8093,0.7462 -1.05,0.0393 -1.4872,0.90715 -1.0419,2.06776 0.4221,1.1 0.4367,2.86211 0.032,3.91581 -0.4231,1.10274 -1.6299,1.57244 -2.8435,1.10675 -1.3955,-0.53551 -1.7824,-0.28164 -1.1443,0.75085 0.5786,0.93621 0.133,1.55992 -1.1146,1.55992 -1.1433,0 -2.0787,0.6 -2.0787,1.33333 0,0.73334 -1.15,1.33334 -2.5556,1.33334 -1.4055,0 -2.9055,0.75 -3.3333,1.66666 -0.6222,1.33334 -0.9333,1.33334 -1.5555,0 -0.4278,-0.91666 -1.3278,-1.66666 -2,-1.66666 -0.6723,0 -1.2223,1.16459 -1.2223,2.58798 0,1.42338 -0.667,3.00025 -1.4824,3.50415 -0.8153,0.5039 -1.9335,0.18619 -2.4849,-0.70601 -0.6753,-1.09264 -1.9663,-0.063 -3.9546,3.15426 -1.6236,2.62705 -3.9554,5.41499 -5.1817,6.19542 -1.8044,1.14834 -1.8757,1.56459 -0.3738,2.18244 1.2338,0.50757 0.4443,1.35703 -2.3557,2.53431 -2.98821,1.25648 -4.44211,2.92389 -5.00545,5.74057 -0.43667,2.18336 -1.68887,4.31315 -2.78267,4.73288 -1.15171,0.44195 -1.65192,1.64082 -1.18849,2.84849 0.44012,1.14695 0.18126,3.24189 -0.57524,4.65543 -0.75651,1.41354 -2.55436,2.57008 -3.99522,2.57008 -1.84046,0 -2.60714,0.89241 -2.57735,3 0.0413,2.92495 0.0914,2.93525 2,0.41183 1.07668,-1.4235 1.95759,-1.92257 1.95759,-1.10905 0,0.81351 0.40197,2.52662 0.89326,3.8069 0.609,1.58704 0.39686,2.02099 -0.66667,1.36369 -0.94551,-0.58435 -1.55992,-0.11434 -1.55992,1.1933 0,1.18655 -0.50222,1.84699 -1.11604,1.46762 -0.61383,-0.37936 -2.41383,0.21925 -4,1.33025 -1.61832,1.13351 -2.88396,3.44968 -2.88396,5.27773 0,1.79175 0.6,3.25773 1.33333,3.25773 0.73334,0 1.33334,2.7 1.33334,6 0,3.45353 -0.61886,6 -1.45816,6 -0.80199,0 -1.76112,-1.15849 -2.13139,-2.57443 -0.37028,-1.41594 -1.43438,-2.86652 -2.36468,-3.22351 -1.04846,-0.40233 -2.34677,1.33658 -3.41535,4.57444 -0.94816,2.87293 -2.22788,5.2235 -2.84384,5.2235 -0.61595,0 -1.11073,2.25 -1.0995,5 0.0158,3.86795 0.33599,4.54718 1.41423,3 1.0252,-1.47107 1.1532,-0.76582 0.48399,2.66667 -0.50041,2.56667 -1.73681,5.14648 -2.74757,5.73292 -1.01075,0.58644 -1.83773,2.57185 -1.83773,4.41202 0,1.89099 -0.57975,2.98747 -1.33334,2.52173 -0.83285,-0.51474 -1.33333,2.20837 -1.33333,7.25464 0,7.1898 -0.29341,8.07869 -2.66667,8.07869 -2.19883,0 -2.66666,0.88889 -2.66666,5.06667 0,2.78666 0.74498,5.81165 1.65552,6.72218 1.12347,1.12348 1.20606,1.95906 0.25699,2.6 -0.84911,0.57344 -1.27931,5.9206 -1.09509,13.61115 0.16689,6.96667 0.35124,13.11667 0.40967,13.66667 0.0584,0.55 1.00624,1 2.10624,1 1.43927,0 2.04429,1.58873 2.15798,5.66667 0.0869,3.11666 0.0467,6.47687 -0.0892,7.46713 -0.13593,0.99026 0.33011,1.44371 1.03564,1.00766 0.70554,-0.43605 1.64567,0.15281 2.08918,1.30858 0.44351,1.15577 0.80638,3.01879 0.80638,4.14005 0,1.44302 -0.7456,1.11899 -2.55189,-1.10905 -1.44519,-1.7826 -3.03536,-2.63486 -3.66667,-1.96517 -0.61313,0.6504 -0.36477,1.4504 0.55189,1.77778 0.91667,0.32738 1.66667,2.39139 1.66667,4.58669 0,2.65717 1.33714,5.32859 4,7.99145 2.2,2.2 4,5.33385 4,6.96411 0,1.63025 -0.72,3.6841 -1.6,4.5641 -0.98625,0.98625 -1.06408,1.6 -0.20291,1.6 0.7684,0 1.45086,1.89103 1.51658,4.20229 0.0657,2.31126 1.05702,5.13983 2.2029,6.28571 1.37911,1.37911 2.08343,1.5361 2.08343,0.46438 0,-0.91422 1.76175,-1.61905 4.04691,-1.61905 3.64262,0 3.90339,0.26817 2.6103,2.68434 -0.93182,1.74112 -0.9922,3.47845 -0.17184,4.94436 0.89373,1.59699 0.69699,2.6752 -0.67059,3.6752 -1.68767,1.23405 -1.67427,2.04006 0.10473,6.2978 1.12205,2.68544 2.64918,5.25906 3.39362,5.71915 0.74445,0.4601 1.35354,0.207 1.35354,-0.56244 0,-0.76943 1.2,-0.3715 2.66666,0.8843 1.46667,1.2558 2.68663,2.89993 2.71103,3.65362 0.0244,0.75369 1.17057,2.72034 2.54706,4.37034 1.37648,1.65 3.11609,3 3.86579,3 0.74967,0 1.74397,1.2 2.20947,2.66667 0.4655,1.46667 1.9417,2.66667 3.2805,2.66667 1.3388,0 2.8008,0.95552 3.249,2.12338 0.5436,1.41652 -0.075,2.35602 -1.8574,2.82218 -1.4697,0.38433 -2.6721,1.10704 -2.6721,1.60601 0,0.49898 2.2753,3.129 5.0562,5.8445 2.7809,2.71549 5.5451,4.93726 6.1426,4.93726 0.5976,0 0.7219,-0.95014 0.2762,-2.11141 -0.5079,-1.3237 -0.2008,-1.9083 0.8231,-1.56698 0.8983,0.29944 2.0145,2.40818 2.4804,4.68611 0.4659,2.27792 1.7884,5.08306 2.939,6.23364 1.1506,1.15059 2.4549,2.09197 2.8983,2.09197 0.4435,0 2.8906,2.08417 5.4379,4.63149 3.8633,3.86335 5.2933,4.49905 8.6222,3.83325 2.9392,-0.5878 3.9907,-0.2972 3.9907,1.1027 0,1.0455 0.7498,3.4897 1.6663,5.4316 0.9164,1.9419 2.5664,3.8619 3.6666,4.2666 1.1003,0.4048 2.834,1.1135 3.8527,1.5748 1.1677,0.5288 1.5082,0.2821 0.9213,-0.6675 -0.5367,-0.8684 -0.068,-1.5063 1.1059,-1.5063 1.37,0 1.7627,0.764 1.1996,2.3333 -0.4605,1.2833 -0.3916,1.9333 0.153,1.4445 0.5446,-0.4889 2.1402,0.2611 3.5457,1.6666 1.4056,1.4056 3.4556,2.5556 4.5556,2.5556 1.1,0 2,0.4535 2,1.0078 0,0.5544 1.65,1.7249 3.6667,2.6013 2.0166,0.8764 5.3838,2.2335 7.4826,3.0159 3.074,1.1459 3.6609,2.0012 3.0182,4.3987 -0.4388,1.637 -0.8059,4.0263 -0.816,5.3096 -0.01,1.2833 -0.9182,2.3333 -2.0182,2.3333 -1.1,0 -1.9809,0.45 -1.9576,1 0.023,0.55 0.7734,1.9053 1.6667,3.0118 1.0502,1.3006 3.5046,1.904 6.9441,1.7071 2.926,-0.1676 5.5242,-0.9175 5.7738,-1.6665 0.2675,-0.8023 1.2318,-0.584 2.3469,0.531 1.3015,1.3016 1.8928,5.0463 1.8928,11.9881 0,9.2063 -0.2348,10.0952 -2.6667,10.0952 -2.2767,0 -2.6666,-0.8889 -2.6666,-6.0787 0,-3.7129 -0.5189,-5.758 -1.3334,-5.2546 -0.7333,0.4532 -1.3333,0.2386 -1.3333,-0.4769 0,-0.7155 0.75,-1.6035 1.6667,-1.9734 1.2208,-0.4926 1.1726,-0.7007 -0.1805,-0.7778 -1.0159,-0.058 -3.2911,1.4529 -5.056,3.3573 -2.4927,2.6896 -2.8693,3.8718 -1.6872,5.2961 1.1639,1.4023 1.0202,2.3353 -0.6106,3.9661 -1.217,1.217 -2.1324,1.4853 -2.1324,0.6251 0,-0.8813 -0.6921,-1.0678 -1.6667,-0.449 -0.9166,0.5821 -2.1166,1.1425 -2.6666,1.2454 -0.55,0.1029 -1.9,0.2621 -3,0.3538 -1.1,0.092 -2,1.102 -2,2.2453 0,1.1433 -0.6,1.7079 -1.3334,1.2547 -0.7333,-0.4533 -1.9974,-0.4137 -2.809,0.088 -1.0594,0.6548 -1.0279,1.1888 0.1116,1.893 1.2211,0.7547 1.184,2.7155 -0.1608,8.5 -0.9615,4.1355 -2.2117,7.5191 -2.7783,7.5191 -0.5666,0 -1.0301,0.83 -1.0301,1.8444 0,1.0145 -1.35,2.2063 -3,2.6485 -1.65,0.4422 -5.2318,0.8122 -7.9595,0.8222 -2.7277,0.01 -7.0959,-1.1818 -9.7072,-2.6485 -2.9769,-1.672 -7.2193,-2.6666 -11.3739,-2.6666 -5.001,0 -6.6261,0.4905 -6.6261,2 0,1.3333 1.3333,2 4,2 3.9374,0 4,0.1097 4,7.0126 0,5.5686 0.5491,7.3555 2.6667,8.6779 1.4666,0.916 2.6666,2.2603 2.6666,2.9874 0,0.7271 -1.5354,1.3221 -3.412,1.3221 -1.8766,0 -3.0647,0.562 -2.6401,1.2489 0.4245,0.6868 2.6521,2.1869 4.9502,3.3333 2.2981,1.1464 6.0361,2.0653 8.3068,2.042 3.7178,-0.038 3.8963,-0.2186 1.7951,-1.8136 -1.2833,-0.9742 -2.3333,-2.5337 -2.3333,-3.4654 0,-1.2026 1.4021,-1.4666 4.8319,-0.9101 2.6575,0.4313 5.136,1.0884 5.5079,1.4602 0.3718,0.3718 -0.3026,2.7381 -1.4986,5.2585 -1.196,2.5204 -2.1745,5.5607 -2.1745,6.7562 0,1.1955 -0.9,2.519 -2,2.9411 -1.239,0.4755 -2,2.5048 -2,5.3334 0,2.8285 -0.761,4.8578 -2,5.3333 -1.3578,0.521 -2,2.6483 -2,6.6248 0,3.7954 -0.5868,5.8584 -1.6667,5.8604 -0.9425,0 -1.7314,1.8008 -1.8158,4.1408 -0.082,2.2757 -0.7479,4.5244 -1.4799,4.9969 -0.732,0.4726 -2.4009,4.7593 -3.7087,9.5259 -1.3079,4.7667 -2.2574,12.1167 -2.11,16.3334 0.2155,6.1665 -0.1385,7.6666 -1.8089,7.6666 -1.3384,0 -2.1328,1.3036 -2.2344,3.6667 l -0.1578,3.6667 -0.9626,-4 -0.9627,-4 -1.7238,4 c -0.9481,2.2 -2.0182,7.15 -2.3781,11 -0.3598,3.85 -1.1799,7 -1.8224,7 -0.6425,0 -1.1682,4.7601 -1.1682,10.5781 0,10.5078 -0.024,10.5809 -3.6115,11 -3.1252,0.365 -3.6526,1.0802 -3.9172,5.311 -0.2028,3.2424 0.34,5.1369 1.6115,5.6248 1.0544,0.4046 1.9172,1.3397 1.9172,2.0779 0,0.8807 -1.1461,0.9064 -3.3334,0.075 -2.2828,-0.8679 -3.3333,-0.8126 -3.3333,0.1757 0,0.7936 -0.9,1.0976 -2,0.6755 -1.1,-0.4221 -2,-0.1863 -2,0.524 0,0.7103 1.2,1.2915 2.6667,1.2915 1.4666,0 2.6666,0.5646 2.6666,1.2546 0,0.6901 -0.5605,1.6011 -1.2455,2.0245 -0.6851,0.4234 -0.9061,2.8616 -0.4912,5.4183 0.6199,3.8198 0.1288,5.2742 -2.7544,8.1574 -1.9299,1.9299 -3.50885,2.827 -3.50885,1.9937 0,-0.8334 -0.669,-1.5152 -1.48668,-1.5152 -0.89704,0 -0.59725,1.3575 0.75588,3.4226 1.84869,2.8215 1.94122,3.7856 0.52686,5.4898 -1.15133,1.3873 -1.58056,5.3053 -1.30489,11.9108 l 0.4108,9.8435 -4.45098,0.1476 c -2.44804,0.081 -5.95099,0.023 -7.78432,-0.1297 -1.83333,-0.1525 -2.92164,0.1428 -2.41846,0.6562 0.50318,0.5134 0.36803,2.3717 -0.30033,4.1297 -0.76745,2.0185 -0.73609,3.1962 0.0851,3.1962 0.71519,0 1.30034,0.5571 1.30034,1.2381 0,0.6809 -0.9,2.1381 -2,3.2381 -1.1,1.1 -1.99082,2.7928 -1.97959,3.7619 0.0151,1.3013 0.3583,1.2391 1.31292,-0.2381 1.10457,-1.7092 1.29547,-1.6607 1.31292,0.3333 0.0112,1.2834 0.62041,2.3334 1.35375,2.3334 0.73333,0 1.33333,0.6642 1.33333,1.4759 0,0.8118 -0.9,1.1307 -2,0.7086 -1.45751,-0.5593 -2.04172,0.2157 -2.1538,2.8573 -0.0846,1.9937 -0.23459,4.5248 -0.33333,5.6248 -0.0987,1.1 -1.31607,2.0031 -2.70517,2.0068 -1.3891,0 -3.00336,0.9038 -3.58725,2 -0.58389,1.0963 -1.40879,3.6432 -1.83311,5.6599 -0.42431,2.0167 -1.56401,3.6667 -2.53266,3.6667 -0.96866,0 -2.55326,2.4 -3.52135,5.3333 -0.96808,2.9333 -2.19745,5.3333 -2.73193,5.3333 -0.53447,0 -0.88844,1.05 -0.78659,2.3334 0.10186,1.2833 0.78519,2.7741 1.51852,3.3129 0.80572,0.5919 0.61737,0.9876 -0.47598,1 -1.01001,0.011 -1.48898,0.8552 -1.08419,1.9101 0.39882,1.0393 -0.13699,2.2204 -1.19068,2.6248 -1.0537,0.4043 -1.91581,2.204 -1.91581,3.9992 0,1.7952 0.68873,3.4937 1.53051,3.7742 1.14264,0.3809 1.11359,2.2482 -0.11461,7.3679 -1.52745,6.3671 -1.86326,6.7748 -4.69425,5.6984 -2.51765,-0.9572 -3.30465,-0.5984 -4.51518,2.0584 -0.9515,2.0883 -1.07144,5.33 -0.34174,9.2359 0.61837,3.31 0.75178,6.0892 0.29646,6.1761 -0.45533,0.087 -1.27786,0.087 -1.82786,0 -0.55,-0.087 -1,0.4123 -1,1.1091 0,0.6969 1.05,1.8787 2.33333,2.6262 1.88703,1.0991 1.37696,1.3668 -2.66667,1.3996 -4.0465,0.033 -5,0.534 -5,2.6285 0,1.4234 0.6,2.9588 1.33334,3.412 0.73333,0.4532 1.33333,1.424 1.33333,2.1574 0,0.7333 -0.6,0.9625 -1.33333,0.5093 -0.80349,-0.4966 -1.33334,1.2824 -1.33334,4.4768 0,2.9932 0.72559,5.5937 1.66667,5.9735 0.91667,0.3698 0.35208,0.7198 -1.25464,0.7777 -1.60672,0.058 -3.33172,0.7694 -3.83334,1.581 -0.63748,1.0315 -1.297,0.9311 -2.19094,-0.3333 -0.87007,-1.2307 -1.02897,-0.3658 -0.49706,2.7057 0.55249,3.1902 -0.0707,6.2217 -2.12408,10.3333 -1.59828,3.2002 -3.31947,5.8186 -3.82488,5.8186 -0.5054,0 -0.84905,4.95 -0.76366,11 0.12212,8.6515 -0.32089,11.4762 -2.07497,13.2302 -1.85901,1.859 -2.35141,1.9145 -2.95816,0.3334 -0.40035,-1.0433 -1.66159,-1.8969 -2.80276,-1.8969 -1.14116,0 -2.60656,1.3985 -3.25643,3.1078 -0.64987,1.7093 -0.74618,6.8004 -0.21403,11.3137 0.53216,4.5132 0.52953,8.6647 -0.006,9.2255 -0.53538,0.5608 -1.17615,2.5196 -1.42396,4.353 -0.34522,2.5541 -1.15082,3.2591 -3.44623,3.0157 -2.70757,-0.2871 -2.99569,0.2579 -2.99569,5.6667 0,3.2913 -0.54726,5.9842 -1.21613,5.9842 -0.66888,0 -1.62859,2.4413 -2.1327,5.4251 -0.6562,3.884 -1.447,5.2215 -2.78386,4.7085 -1.11945,-0.4296 -1.86731,0.1345 -1.86731,1.4083 0,1.71 0.84591,1.9329 4.33334,1.1416 2.38333,-0.5408 5.51041,-1.0658 6.94907,-1.1667 1.96164,-0.1376 2.69399,0.7612 2.92863,3.594 0.17208,2.0775 0.99148,4.595 1.82087,5.5944 1.04322,1.257 2.43507,1.4645 4.51601,0.6733 1.70064,-0.6466 3.8289,-0.6307 4.89671,0.037 1.03879,0.6491 4.13871,0.9018 6.88871,0.5615 l 5,-0.6187 v 5.321 c 0,4.3871 0.45648,5.3211 2.60041,5.3211 1.43023,0 3.16472,1.0084 3.85443,2.2408 1.15336,2.061 1.42653,2.0683 3.40316,0.092 1.49997,-1.5 1.95606,-3.6571 1.50994,-7.1416 -0.35156,-2.7458 0.0203,-5.7871 0.82636,-6.7583 0.91421,-1.1016 0.96104,-1.7659 0.12447,-1.7659 -0.7376,0 -1.6549,-1.2 -2.03844,-2.6667 -0.45323,-1.7331 -0.0409,-2.6666 1.17783,-2.6666 1.03134,0 1.87517,-0.5087 1.87517,-1.1305 0,-0.6217 1.93699,-1.1855 4.30441,-1.2528 2.36743,-0.067 4.75824,0.5914 5.31292,1.4638 0.62855,0.9886 1.0162,0.4559 1.02892,-1.4139 0.0143,-2.1043 0.81659,-3 2.68709,-3 1.46666,0 2.66666,0.6 2.66666,1.3334 0,0.7333 1.5,1.3333 3.33334,1.3333 1.83333,0 3.33333,0.5812 3.33333,1.2915 0,0.7103 0.9,0.9461 2,0.524 1.15624,-0.4437 2.03954,0 2.09371,1.0419 0.0522,1.0081 0.65342,0.6285 1.35775,-0.8574 0.97068,-2.0478 1.12311,-1.5063 0.65678,2.3333 -0.33399,2.75 -0.1401,5 0.43087,5 0.57097,0 0.63601,2.6497 0.14452,5.8883 -0.82444,5.4324 -0.65328,5.9341 2.21138,6.4817 2.54205,0.486 3.10499,0.023 3.10499,-2.5549 0,-2.6093 0.68486,-3.1484 4,-3.1484 2.2,0 4,0.6 4,1.3333 0,0.7334 2.14286,1.3334 4.76186,1.3334 2.6191,0 5.6619,0.9 6.7619,2 1.1,1.1 3.1926,2 4.6501,2 1.4576,0 2.311,0.5487 1.8965,1.2194 -0.4145,0.6707 10e-5,1.525 0.9213,1.8985 1.0845,0.4397 1.2049,1.0674 0.3416,1.7806 -0.7333,0.6058 -1.4914,1.8758 -1.6846,2.8222 -0.1933,0.9463 0.3187,2.9726 1.1376,4.5029 1.149,2.1468 1.077,3.0711 -0.3153,4.0474 -1.4114,0.9898 -1.4395,1.4132 -0.1294,1.9444 0.9213,0.3734 1.2818,1.3153 0.8012,2.0929 -0.5867,0.9492 0.3966,1.0985 2.9917,0.4542 2.126,-0.5278 4.0655,-1.5153 4.3099,-2.1944 0.2445,-0.6792 2.7945,-1.2348 5.6667,-1.2348 2.8722,0 5.2222,0.6 5.2222,1.3333 0,0.7334 0.9,1.3334 2,1.3334 1.1458,0 2.0568,1.2813 2.1329,3 0.124,2.797 0.1916,2.8196 1,0.3333 0.4769,-1.4667 1.6296,-2.8208 2.5615,-3.0092 1.2049,-0.2436 1.4407,0.7194 0.8162,3.3333 -0.4831,2.0218 -1.367,4.303 -1.9644,5.0695 -0.5973,0.7665 -0.9508,5.1284 -0.7854,9.6932 0.227,6.2628 -0.1158,8.1398 -1.3967,7.6483 -0.9336,-0.3583 -1.6974,-0.1056 -1.6974,0.5614 0,0.667 0.6,1.5836 1.3333,2.0368 0.7334,0.4533 1.3334,1.3887 1.3334,2.0787 0,0.6901 -1.3869,1.2547 -3.0819,1.2547 -1.6951,0 -4.37,1.2 -5.9443,2.6666 -1.9995,1.8629 -4.7053,2.6667 -8.9765,2.6667 -5.0834,0 -6.0482,0.3934 -5.7224,2.3333 0.274,1.6324 -0.3494,2.2065 -2.0754,1.9109 -1.3569,-0.2324 -2.1058,0.1622 -1.6641,0.8768 0.4885,0.7904 8.0477,1.0632 19.3017,0.6964 15.8214,-0.5157 18.613,-0.3049 19.2889,1.4565 0.4346,1.1327 1.7091,2.0594 2.8321,2.0594 1.123,0 2.0419,-0.556 2.0419,-1.2355 0,-0.6796 -1.05,-1.51 -2.3334,-1.8454 -1.7558,-0.4588 -1.5909,-0.648 0.6667,-0.7644 1.65,-0.085 3.0092,0.5953 3.0204,1.512 0.015,1.2264 0.3233,1.1888 1.1667,-0.1423 0.762,-1.2027 1.4399,-1.3339 2.0223,-0.3916 0.4818,0.7796 1.713,1.0963 2.736,0.7037 1.3346,-0.5122 1.6588,0.056 1.1476,2.0104 -0.4003,1.5308 0.1847,3.6214 1.3354,4.772 1.1263,1.1263 2.9907,2.0478 4.143,2.0478 1.7062,0 2.0953,1.7416 2.0953,9.3803 0,5.449 0.7447,10.6178 1.7771,12.3333 0.9774,1.6242 1.6524,3.7031 1.5,4.6197 -0.1524,0.9167 -0.3521,3.1667 -0.4438,5 -0.1178,2.3561 -0.9271,3.3334 -2.7603,3.3334 -2.1482,0 -2.6634,-1.0877 -3,-6.3334 -0.3419,-5.3288 -0.8,-6.2657 -2.8886,-5.9073 -2.1496,0.3689 -2.4129,-0.301 -1.9647,-5 0.3413,-3.5792 -0.019,-5.426 -1.0597,-5.426 -0.9587,0 -1.2823,1.1273 -0.8252,2.8752 0.5361,2.0501 0.2833,2.5855 -0.8812,1.8658 -1.0487,-0.6481 -1.9064,0.036 -2.3969,1.9112 -0.5826,2.228 -1.5174,2.7765 -3.942,2.313 -1.7481,-0.3342 -3.4995,-0.088 -3.8919,0.547 -0.3925,0.6349 -16.2047,1.1545 -35.1383,1.1545 -29.84182,0 -34.65891,0.2823 -36.18442,2.1204 -1.60468,1.9335 -1.90351,1.9238 -3.39075,-0.1101 -1.51246,-2.0684 -1.72248,-2.053 -2.88998,0.2129 -0.69245,1.3439 -0.99008,3.1934 -0.6614,4.1101 0.32869,0.9167 -0.0524,1.6667 -0.84683,1.6667 -0.79445,0 -1.44445,1.5 -1.44445,3.3333 0,1.8333 -0.6,3.3333 -1.33333,3.3333 -0.73333,0 -1.33333,-0.6211 -1.33333,-1.3802 0,-0.9169 -0.93352,-0.8806 -2.78087,0.108 -1.52947,0.8186 -2.43468,1.8345 -2.01156,2.2576 0.42311,0.4231 0.0245,1.674 -0.88581,2.7798 -1.42431,1.7302 -1.15521,1.886 1.92986,1.1178 1.97172,-0.491 3.94093,-0.3167 4.37603,0.3873 0.43509,0.704 1.67186,0.942 2.74838,0.5289 1.07651,-0.4131 1.9573,-0.087 1.9573,0.7249 0,0.8118 -0.75,1.4851 -1.66667,1.4964 -1.19172,0.015 -1.13654,0.3561 0.19366,1.1983 1.28719,0.8151 1.64773,2.7631 1.17025,6.3229 -0.44905,3.3479 -0.0706,5.7236 1.0834,6.8017 0.97541,0.9111 2.6988,1.6566 3.82975,1.6566 1.13095,0 2.05628,0.551 2.05628,1.2245 0,0.6877 -8.19013,1.2034 -18.68492,1.1765 -10.89087,-0.028 -19.02664,-0.6009 -19.50415,-1.3735 -0.45059,-0.7291 0.008,-1.8493 1.01824,-2.4894 1.36385,-0.8639 1.06419,-1.1691 -1.16251,-1.1843 -1.90579,-0.013 -3.05153,-0.8715 -3.14128,-2.3538 -0.0777,-1.2833 -0.0203,-4.1333 0.12754,-6.3333 0.14785,-2.2 1.26142,-4.5843 2.47461,-5.2985 1.21319,-0.7142 2.6558,-1.3892 3.2058,-1.5 0.55,-0.1108 2.3,-0.2765 3.88889,-0.3682 1.58889,-0.092 2.49821,-0.5573 2.02072,-1.0348 -0.47749,-0.4775 0.17251,-1.6584 1.44445,-2.6242 2.09212,-1.5887 1.96303,-1.7602 -1.35406,-1.7985 -2.01667,-0.023 -3.66667,-0.6425 -3.66667,-1.3758 0,-0.7333 -1.5,-1.3333 -3.33333,-1.3333 -2.44445,0 -3.33334,-0.7111 -3.33334,-2.6667 0,-1.4667 0.75,-2.6758 1.66667,-2.6871 1.07263,-0.013 1.17553,-0.3695 0.28872,-1 -0.75786,-0.5387 -1.35787,-2.1796 -1.33333,-3.6462 0.0336,-2.0091 -0.94182,-2.7523 -3.95539,-3.014 -2.2,-0.1911 -4.8053,0.1785 -5.78956,0.8213 -1.49719,0.9777 -1.49719,1.6401 0,4.0547 1.50827,2.4324 1.49487,3.0694 -0.0852,4.0526 -1.03112,0.6417 -3.26997,0.9137 -4.97522,0.6044 -2.08291,-0.3777 -3.65144,0.3201 -4.7793,2.1261 -0.92336,1.4785 -2.43451,2.6882 -3.35811,2.6882 -0.9236,0 -2.87927,-1.2 -4.34593,-2.6667 -1.46667,-1.4666 -2.66667,-2.2331 -2.66667,-1.7033 0,0.5299 -0.88032,-0.2935 -1.95626,-1.8296 -1.07594,-1.5361 -1.71039,-4.0696 -1.40989,-5.63 0.49708,-2.5811 -0.041,-2.8371 -5.96505,-2.8371 -3.58128,0 -6.85662,0.5586 -7.27853,1.2412 -0.42191,0.6827 -0.15732,1.6181 0.58798,2.0787 0.74529,0.4607 1.35508,1.8049 1.35508,2.9872 0,1.1823 -0.92845,3.1756 -2.06323,4.4295 -1.86471,2.0605 -1.85225,2.4908 0.1295,4.4726 1.20601,1.206 1.87387,3.0237 1.48414,4.0393 -0.45072,1.1745 -3.04542,1.9225 -7.12951,2.0553 -3.53149,0.1148 -8.37112,0.211 -10.75472,0.2139 -2.3836,0 -5.2336,-0.8946 -6.33333,-1.9943 -1.09974,-1.0998 -1.99952,-3.6263 -1.99952,-5.6145 0,-1.9882 -1.05,-4.4119 -2.33333,-5.3861 -1.37679,-1.0452 -1.66181,-1.7887 -0.69525,-1.8137 1.26296,-0.033 1.29028,-0.8057 0.11931,-3.3757 -1.16739,-2.5622 -2.52323,-3.3334 -5.8603,-3.3334 -2.38785,0 -4.58317,-0.7248 -4.87849,-1.6108 -0.39793,-1.1938 -1.06492,-1.1177 -2.57608,0.2939 -1.12152,1.0477 -1.75991,2.9726 -1.41865,4.2776 0.34714,1.3274 -0.10387,2.3727 -1.0238,2.3727 -1.06383,0 -1.40347,1.2597 -0.96212,3.5685 0.39094,2.0451 -0.0713,4.3219 -1.08266,5.3333 -0.97065,0.9707 -3.30768,1.7648 -5.19339,1.7648 -2.53968,0 -3.42857,0.6914 -3.42857,2.6667 0,1.9556 -0.88889,2.6667 -3.33334,2.6667 -1.83333,0 -3.33333,0.6 -3.33333,1.3333 0,0.7333 -0.9,1.3333 -2,1.3333 -1.14092,0 -2,1.1991 -2,2.7915 0,1.6702 -1.0712,3.0717 -2.66667,3.4889 -1.95814,0.512 -2.66666,1.8187 -2.66666,4.9177 0,3.6203 -0.51072,4.2626 -3.59198,4.5176 -1.97559,0.1635 -3.9739,0.9153 -4.4407,1.6706 -0.4668,0.7552 -5.50775,1.3975 -11.20211,1.4273 l -10.35337,0.054 0.33172,7.5662 c 0.18245,4.1615 0.23978,8.6162 0.12741,9.8996 -0.19109,2.1823 -3.80707,2.331 -55.87098,2.2978 z m 43.44445,-210.7141 c 0.24786,-0.6973 8.67039,-1.2504 19.04185,-1.2504 15.05657,0 18.73932,-0.3698 19.34282,-1.9425 0.52098,-1.3577 1.91353,-1.709 4.62482,-1.1667 3.30999,0.662 3.8794,0.36 3.8794,-2.0575 0,-1.9955 -0.88703,-2.887 -3,-3.0149 l -3,-0.1815 3,-0.5779 c 1.65,-0.3178 3,-1.3681 3,-2.3341 0,-1.117 3.27601,-2.3547 9,-3.4003 4.95,-0.9042 10.8,-2.4215 13,-3.3717 2.2,-0.9502 6.85,-2.1151 10.33334,-2.5886 5.58887,-0.7598 6.33333,-1.2432 6.33333,-4.1127 0,-2.205 0.751,-3.254 2.33333,-3.259 1.28334,0 4.58334,-0.6323 7.33334,-1.396 2.84656,-0.7906 5,-2.223 5,-3.3259 0,-1.3164 1.46082,-1.9374 4.55761,-1.9374 2.50669,0 5.50669,-0.3642 6.66667,-0.8093 1.15998,-0.4451 2.10905,-1.6451 2.10905,-2.6666 0,-1.0216 0.6,-1.8574 1.33333,-1.8574 0.73334,0 1.33334,-1.5 1.33334,-3.3333 0,-2.0741 0.75555,-3.3334 2,-3.3334 1.24444,0 2,-1.2592 2,-3.3333 0,-2.7849 0.63259,-3.3333 3.84449,-3.3333 2.72315,0 4.04789,-0.7778 4.54184,-2.6667 0.41723,-1.5955 1.81869,-2.6667 3.48884,-2.6667 1.53532,0 2.7915,-0.6 2.7915,-1.3333 0,-0.7333 -1.8,-1.3333 -4,-1.3333 -2.2,0 -4,-0.6 -4,-1.3334 0,-0.7333 1.2,-1.3333 2.66666,-1.3333 2.22222,0 2.66667,-0.8889 2.66667,-5.3333 0,-2.9334 0.6,-5.3334 1.33333,-5.3334 0.73334,0 1.33334,-2.4 1.33334,-5.3333 0,-2.9333 0.6,-5.3333 1.33333,-5.3333 0.73333,0 1.33333,-1.5 1.33333,-3.3334 0,-1.8333 0.6,-3.3333 1.33334,-3.3333 0.73333,0 1.33703,-0.75 1.34154,-1.6667 0.005,-0.9166 0.84797,-3.2762 1.87434,-5.2435 1.02636,-1.9673 2.27034,-5.4173 2.76439,-7.6667 0.49405,-2.2494 1.4506,-4.0898 2.12567,-4.0898 0.67506,0 1.22739,-0.9 1.22739,-2 0,-1.1 0.78887,-2 1.75305,-2 0.96418,0 2.76418,-2.1203 4,-4.7119 1.23582,-2.5915 2.24695,-5.5915 2.24695,-6.6666 0,-1.0752 0.6,-1.9548 1.33333,-1.9548 0.73334,0 1.33334,-1.5 1.33334,-3.3333 0,-1.8334 0.6,-3.3334 1.33333,-3.3334 0.73333,0 1.33333,-0.85 1.33333,-1.8889 0,-1.0388 -0.70338,-2.1233 -1.56307,-2.4099 -1.02365,-0.3412 -0.50931,-1.9463 1.49036,-4.651 1.67939,-2.2715 2.64737,-4.787 2.15105,-5.5901 -0.51058,-0.8261 0.0264,-1.4601 1.23673,-1.4601 1.74313,0 1.97233,-0.9255 1.23817,-5 -0.49552,-2.75 -1.44345,-5.6864 -2.10652,-6.5255 -0.66307,-0.839 -1.56841,-4.589 -2.01187,-8.3333 -0.74827,-6.318 -0.60104,-6.8078 2.0461,-6.8078 1.56881,0 2.85239,-0.251 2.85239,-0.5577 0,-0.3066 -0.3642,-1.5066 -0.80932,-2.6666 -0.44513,-1.16 -1.5821,-2.1091 -2.52662,-2.1091 -1.02986,0 -1.9209,-2.1349 -2.22592,-5.3333 -0.35307,-3.7023 0.0119,-5.3333 1.19329,-5.3333 0.93605,0 1.7019,-0.6 1.7019,-1.3334 0,-0.7333 -0.6,-1.3333 -1.33333,-1.3333 -0.73334,0 -1.33334,-0.6 -1.33334,-1.3333 0,-0.7334 1.05,-1.3525 2.33334,-1.3758 2.19592,-0.04 2.19896,-0.1445 0.0516,-1.7759 -1.25496,-0.9535 -2.68164,-4.2344 -3.17041,-7.2909 -0.48876,-3.0566 -1.62864,-5.5574 -2.53307,-5.5574 -1.04141,0 -1.91199,-2.951 -2.37414,-8.0477 -0.40135,-4.4262 -1.68468,-9.5051 -2.85185,-11.2864 -1.16716,-1.7813 -2.12211,-3.9192 -2.12211,-4.7507 0,-0.8316 -1.8,-3.1935 -4,-5.2486 -2.2,-2.0551 -4,-4.6223 -4,-5.705 0,-1.0826 -0.86144,-2.6834 -1.9143,-3.5572 -1.05286,-0.8738 -2.32824,-3.4972 -2.83417,-5.8299 -0.50594,-2.3327 -1.30081,-4.5412 -1.76638,-4.9079 -0.46557,-0.3666 -2.29276,-3.8166 -4.06041,-7.6666 -2.16784,-4.7217 -4.00768,-7 -5.65266,-7 -1.82083,0 -2.43875,-1.0135 -2.43875,-4 0,-2.2 -0.6,-4 -1.33333,-4 -0.73334,0 -1.33334,-0.8266 -1.33334,-1.8368 0,-1.0102 -0.84987,-2.5421 -1.8886,-3.4041 -1.49925,-1.2443 -2.01711,-1.0718 -2.512,0.8367 -0.34287,1.3223 -0.693,0.1487 -0.77806,-2.608 -0.11161,-3.6166 -1.26837,-6.1775 -4.15467,-9.1977 -2.2,-2.3021 -4,-4.9325 -4,-5.8452 0,-0.9128 -0.85466,-1.9876 -1.89924,-2.3884 -1.04458,-0.4009 -2.92818,-2.8972 -4.18579,-5.5474 -1.4697,-3.0972 -2.95293,-4.5628 -4.15194,-4.1027 -1.02597,0.3937 -2.31192,-0.3242 -2.85767,-1.5953 -0.54574,-1.2711 -2.12498,-4.1589 -3.50941,-6.4172 -1.38444,-2.2583 -4.33698,-5.2583 -6.56122,-6.6667 -2.22424,-1.4083 -5.12197,-3.1529 -6.43941,-3.8767 -1.31743,-0.7239 -2.39532,-1.8332 -2.39532,-2.4651 0,-0.6319 -1.79156,-2.8224 -3.98123,-4.8679 -2.18968,-2.0455 -5.48968,-4.0976 -7.33334,-4.5604 -1.84366,-0.4627 -3.3521,-1.4413 -3.3521,-2.1746 0,-0.758 -1.44476,-0.9707 -3.34841,-0.493 -2.75109,0.6905 -3.19589,0.443 -2.49347,-1.3875 0.53932,-1.4054 -0.37587,-3.5522 -2.47899,-5.815 -1.83366,-1.9729 -4.3806,-5.237 -5.65988,-7.2537 -1.41413,-2.2293 -3.50523,-3.6667 -5.33416,-3.6667 -2.60305,0 -3.12732,-0.8979 -3.89258,-6.6666 -0.71191,-5.3667 -1.38139,-6.6667 -3.43324,-6.6667 -2.43687,0 -2.46107,0.2957 -0.55062,6.7288 1.09903,3.7009 1.62606,7.9015 1.17116,9.3348 -0.45489,1.4332 -1.90356,3.182 -3.21926,3.8861 -1.62294,0.8686 -3.06891,0.761 -4.49667,-0.3347 -1.15747,-0.8883 -3.24082,-4.6548 -4.62966,-8.37 -1.42256,-3.8054 -2.66133,-10.9534 -2.83701,-16.3702 -0.22661,-6.9868 -1.24328,-11.6498 -3.71905,-17.0575 -1.87395,-4.0933 -3.78316,-6.8461 -4.24268,-6.1174 -0.45952,0.7287 -2.03549,1.6307 -3.50215,2.0045 -2.5389,0.647 -2.52293,0.7258 0.33333,1.6431 1.65,0.5299 3,1.4935 3,2.1413 0,0.6478 -0.52331,1.1779 -1.16292,1.1779 -0.63961,0 -1.5467,2.4 -2.01576,5.3333 -0.66328,4.1479 -1.44204,5.3333 -3.50374,5.3333 -1.76202,0 -2.65091,0.8942 -2.65091,2.6667 0,1.4815 -0.88889,2.6667 -2,2.6667 -1.1,0 -2,0.9 -2,2 0,1.1 0.6,2 1.33333,2 0.73333,0 1.34252,-0.75 1.35375,-1.6667 0.0136,-1.1073 0.44676,-0.9954 1.29073,0.3333 0.99077,1.5599 0.47175,2.1682 -2.35856,2.7644 -1.99589,0.4205 -6.62672,0.3506 -10.29074,-0.1552 -3.66401,-0.5057 -5.57644,-0.9997 -4.24982,-1.0977 1.32661,-0.098 2.0412,-0.7781 1.58797,-1.5115 -0.45322,-0.7333 -1.98863,-1.3333 -3.41202,-1.3333 -1.42339,0 -2.58798,-0.55 -2.58798,-1.2222 0,-0.6723 0.75,-1.5249 1.66667,-1.8948 0.91667,-0.3699 -1.78333,-0.7199 -6,-0.7778 -6.74269,-0.092 -7.66667,-0.4266 -7.66667,-2.7719 0,-1.4666 -0.56015,-2.6666 -1.24477,-2.6666 -0.68462,0 -1.43462,-1.65 -1.66667,-3.6667 -0.29666,-2.5783 -1.21344,-3.707 -3.08856,-3.8026 -1.46667,-0.075 -4.31667,-0.2248 -6.33333,-0.3333 -3.65267,-0.1967 -3.66667,-0.2352 -3.66667,-10.0863 0,-5.4389 -0.50457,-10.0889 -1.12126,-10.3334 -0.6167,-0.2444 -3.40408,-3.4444 -6.19418,-7.1111 -2.79011,-3.6666 -5.95688,-8.7666 -7.03728,-11.3333 -1.0804,-2.5667 -2.82711,-7.9667 -3.88157,-12 -1.05446,-4.0334 -2.26247,-11.004 -2.68447,-15.4903 -0.67363,-7.1617 -0.41663,-8.5077 2.10631,-11.0306 2.29237,-2.2924 3.40355,-2.5899 5.49393,-1.4712 1.4412,0.7713 2.98973,2.8741 3.44118,4.6728 0.58618,2.3355 2.21053,3.6564 5.68241,4.6207 2.67388,0.7427 6.46874,1.3537 8.43303,1.3578 1.96428,0 4.38424,0.8203 5.37768,1.8137 0.99344,0.9934 3.5863,2.1511 5.7619,2.5725 2.17561,0.4214 5.15565,0.9586 6.62232,1.1937 2.24083,0.3593 2.59909,-0.2112 2.24346,-3.5725 -0.23277,-2.2 -1.94695,-7.4104 -3.8093,-11.5787 -1.86235,-4.1683 -4.2219,-7.8995 -5.24345,-8.2915 -1.02156,-0.392 -1.85738,-1.827 -1.85738,-3.18882 0,-1.36185 -1.49081,-3.87664 -3.31292,-5.58842 -1.8221,-1.71178 -3.68888,-5.11637 -4.14838,-7.56575 -0.45951,-2.44939 -1.3687,-4.45343 -2.02042,-4.45343 -0.65172,0 -1.18494,-1.75317 -1.18494,-3.89594 0,-2.14276 -1.35,-6.94197 -3,-10.66491 -2.55596,-5.76706 -3.54273,-6.76923 -6.66667,-6.77073 -3.45546,-0.002 -3.67884,-0.36656 -3.87793,-6.33509 -0.11619,-3.48333 -0.13852,-7.2972 -0.0496,-8.47526 0.0889,-1.17806 -1.29873,-2.80731 -3.08361,-3.62056 -1.78488,-0.81324 -7.01255,-1.48403 -11.61704,-1.49064 -4.60448,-0.007 -11.52179,0.15763 -15.37179,0.36498 l -7,0.37699 -0.0219,-4.74442 c -0.0121,-2.60943 -1.36206,-6.93019 -3,-9.60169 -1.63793,-2.67149 -4.0913,-6.41269 -5.45193,-8.31377 l -2.47386,-3.45652 5.47386,-6.53793 c 3.01063,-3.59586 5.47387,-7.72311 5.47387,-9.17166 0,-2.10324 1.18576,-2.79625 5.88708,-3.44064 3.61123,-0.49497 7.29461,-2.11137 9.52803,-4.18123 2.00252,-1.85587 4.45334,-3.37432 5.44625,-3.37432 0.99292,0 1.80531,-0.64285 1.80531,-1.42857 0,-0.78571 0.94285,-0.48571 2.09523,0.66667 1.15238,1.15238 2.53238,2.09524 3.06667,2.09524 0.53429,0 1.73182,-0.75 2.66119,-1.66667 1.35401,-1.33551 2.04388,-1.18719 3.472,0.74645 1.12444,1.52247 2.10458,1.89156 2.65559,1 0.48035,-0.77721 1.43795,-1.41312 2.12801,-1.41312 0.69005,0 1.27372,1.35 1.29704,3 0.0413,2.92495 0.0914,2.93525 2,0.41183 1.07668,-1.4235 1.9576,-3.6735 1.9576,-5 0,-1.92491 1.07673,-2.41183 5.33333,-2.41183 3.5757,0 6.22223,-0.88889 8.03056,-2.69722 2.13518,-2.13518 2.405,-3.24326 1.29485,-5.31759 -0.77131,-1.4412 -2.91763,-3.00067 -4.76961,-3.46549 -1.85197,-0.46482 -5.34448,-0.52426 -7.76113,-0.13209 -4.07746,0.66168 -4.38138,0.45735 -4.21998,-2.83729 0.0957,-1.95267 -0.35009,-4.66473 -0.99057,-6.0268 -0.85159,-1.81105 -1.56122,-2.07975 -2.64097,-1 -0.81207,0.81207 -2.21605,1.47648 -3.11996,1.47648 -0.90392,0 -2.02435,-1.2 -2.48985,-2.66667 -0.46551,-1.46666 -1.70594,-2.66666 -2.75652,-2.66666 -1.054,0 -1.91015,1.26001 -1.91015,2.81121 0,2.32328 -0.57127,2.66783 -3.2914,1.98512 -2.71179,-0.68061 -3.65701,-0.11907 -5.36757,3.18879 -1.1419,2.20818 -2.76353,4.01488 -3.60362,4.01488 -0.84009,0 -2.51976,0.89804 -3.73259,1.99564 -1.21284,1.0976 -3.92692,2.13813 -6.03129,2.31229 -2.10437,0.17417 -5.57537,1.91434 -7.71332,3.86706 -2.13795,1.95272 -5.77112,3.95441 -8.0737,4.44819 -2.30258,0.49378 -6.33597,1.17124 -8.96308,1.50546 -4.06023,0.51654 -5.52384,-0.0971 -9.75933,-4.09167 -2.74052,-2.58464 -6.38581,-5.05149 -8.10065,-5.48189 -2.91232,-0.73094 -3.12473,-1.44777 -3.22161,-10.87197 -0.0571,-5.54919 -0.38884,-10.37456 -0.73733,-10.72304 -0.34848,-0.34848 0.84294,-3.27835 2.64761,-6.51082 1.80466,-3.23246 3.28121,-6.75592 3.28121,-7.8299 0,-1.07398 0.6,-1.95269 1.33333,-1.95269 0.73333,0 1.33333,-1.2 1.33333,-2.66666 0,-1.46667 0.55,-2.66667 1.22223,-2.66667 0.67222,0 1.43732,0.64529 1.70021,1.43398 0.28864,0.8659 1.91726,1.07274 4.11111,0.52212 2.03523,-0.51081 3.67799,-1.87451 3.73514,-3.10064 0.0561,-1.20384 0.32262,-3.37236 0.59225,-4.81893 0.26963,-1.44658 1.57372,-3.42531 2.89798,-4.39719 1.40924,-1.03423 3.51364,-1.37292 5.07442,-0.81668 1.46667,0.52269 7.92033,1.1941 14.34148,1.49201 l 11.67481,0.54167 16.72978,-7.42817 c 9.20138,-4.0855 17.13612,-7.42817 17.63276,-7.42817 0.49663,0 4.0388,-1.29973 7.87147,-2.88828 5.309,-2.20046 7.14626,-3.70871 7.71493,-6.33334 0.41053,-1.89478 0.99121,-4.73977 1.29038,-6.3222 0.29918,-1.58243 2.12331,-5.18243 4.05362,-8 1.9303,-2.81757 6.13894,-7.22285 9.35251,-9.78952 4.31956,-3.45 5.864,-5.63987 5.9239,-8.39954 0.0446,-2.05309 0.91961,-5.3545 1.94453,-7.33648 1.02492,-1.98198 3.12492,-4.74518 4.66666,-6.14044 2.62924,-2.37942 2.80318,-3.87905 2.80318,-24.16736 0,-15.66037 0.52149,-22.87148 1.88942,-26.12668 1.03918,-2.47289 3.63595,-6.89617 5.77059,-9.8295 2.13464,-2.93333 6.15845,-7.73333 8.9418,-10.66667 2.78335,-2.93333 6.41068,-7.13333 8.06074,-9.33333 1.65006,-2.2 4.68321,-7 6.74034,-10.66667 2.05713,-3.66667 4.78235,-8.64412 6.05604,-11.061 1.2737,-2.41689 2.87165,-5.11689 3.55101,-6 0.67937,-0.88312 2.60678,-6.10567 4.28315,-11.60567 1.67637,-5.5 4.23371,-11.04678 5.68298,-12.32618 1.44927,-1.27941 3.17254,-1.994 3.82948,-1.58798 0.65695,0.40601 1.19445,-2.03261 1.19445,-5.41917 0,-3.61 0.5315,-5.8289 1.2847,-5.36339 0.70659,0.43669 2.56412,-0.48543 4.12786,-2.04917 2.16345,-2.16345 2.70479,-4.00791 2.26442,-7.7153 -0.31831,-2.67968 -1.07781,-6.02057 -1.68778,-7.4242 -0.78844,-1.81433 -0.65811,-2.27337 0.45088,-1.58798 1.11955,0.69192 1.55992,-1.12836 1.55992,-6.44794 0,-6.9289 0.20797,-7.41202 3.19068,-7.41202 1.75488,0 3.55488,-0.94908 4,-2.10905 0.44513,-1.15998 0.80932,-3.55998 0.80932,-5.33334 0,-1.77335 0.6,-3.22428 1.33333,-3.22428 0.73334,0 1.33334,-0.9 1.33334,-2 0,-1.1 0.66998,-2 1.48884,-2 0.84295,0 1.17975,-1.18198 0.77635,-2.72458 -0.39187,-1.49851 -0.17211,-4.60877 0.48836,-6.91169 0.66046,-2.30291 0.87848,-4.50948 0.48448,-4.90347 -0.394,-0.394 -1.33227,0.16626 -2.08504,1.24502 -1.01385,1.45289 -1.15118,0.97047 -0.52973,-1.86083 0.46143,-2.10222 1.19191,-5.58696 1.62329,-7.74387 0.6466,-3.233 0.28407,-4.05248 -2.06444,-4.66663 -2.58447,-0.67585 -2.84878,-1.65687 -2.84878,-10.5737 v -9.82874 l -5.33333,-0.85283 -5.33334,-0.85284 v -14.00823 c 0,-7.70452 -0.65645,-16.19928 -1.45878,-18.87722 -0.91359,-3.04927 -2.90685,-5.70007 -5.33334,-7.09268 -2.9427,-1.68888 -3.87454,-3.20062 -3.87454,-6.2857 0,-3.98553 -0.12553,-4.06201 -6.66667,-4.06201 -3.66667,0 -6.66667,-0.6 -6.66667,-1.33334 0,-0.73333 -1.8,-1.33333 -4,-1.33333 -2.97478,0 -4,-0.62008 -4,-2.4193 0,-1.46848 -2.14561,-3.56457 -5.45933,-5.33334 -3.8429,-2.05122 -7.79073,-2.91403 -13.33334,-2.91403 -4.36044,0 -7.874,-0.59496 -7.874,-1.33333 0,-0.73334 -1.58385,-1.33334 -3.51967,-1.33334 -1.93583,0 -4.2486,-0.99685 -5.13949,-2.21522 -1.29183,-1.76668 -4.39549,-2.29326 -15.32792,-2.6006 -9.23928,-0.25974 -15.20728,-1.09678 -18.30685,-2.56762 -2.63413,-1.24998 -5.97449,-1.83696 -7.81908,-1.374 -1.92477,0.48309 -3.22032,0.22547 -3.22032,-0.64034 0,-0.84182 -1.11699,-1.09407 -2.66667,-0.60222 -1.46667,0.46551 -2.66667,0.26683 -2.66667,-0.44149 0,-0.70832 -4.2,-1.70965 -9.33333,-2.22517 -5.13333,-0.51552 -9.33334,-1.47642 -9.33334,-2.13532 0,-0.65891 -3.55,-1.19802 -7.88888,-1.19802 -4.71384,0 -8.09254,0.61095 -8.39489,1.51799 -0.35733,1.07198 -5.97249,1.36579 -19.11111,1 -10.23282,-0.28489 -31.34411,-0.43374 -46.914,-0.33078 -25.60156,0.1693 -28.73602,0.43922 -32.77523,2.82241 -2.4565,1.44937 -6.81751,3.38973 -9.69113,4.3119 -2.87362,0.92218 -10.92476,5.45815 -17.89143,10.07994 -6.96667,4.6218 -17.35777,12.4972 -23.09135,17.50091 -5.73357,5.0037 -14.9123,14.36529 -20.39717,20.80354 -5.48488,6.43824 -10.53023,11.3612 -11.21189,10.93991 -0.68166,-0.42129 -2.90293,1.61452 -4.93616,4.52402 -2.03322,2.9095 -4.80714,5.59615 -6.16426,5.97034 -1.35712,0.37419 -2.07171,1.32072 -1.58797,2.10342 0.48373,0.78269 -0.0559,1.42307 -1.19918,1.42307 -1.14328,0 -2.07869,0.52721 -2.07869,1.17158 0,0.64436 -1.8,1.91715 -4,2.82842 -2.37196,0.9825 -4,2.64436 -4,4.08308 0,1.33442 -0.60801,2.80198 -1.35113,3.26125 -0.74311,0.45927 -3.14311,0.88599 -5.33333,0.94826 -3.59095,0.1021 -3.98221,0.54428 -3.98221,4.50043 0,3.50564 -0.48185,4.29441 -2.39798,3.9254 -1.64752,-0.31729 -2.95877,0.85416 -4.18993,3.74322 -0.98558,2.31277 -2.77689,5.40503 -3.9807,6.8717 -1.20381,1.46667 -3.51834,5.14836 -5.1434,8.18154 -1.62506,3.03318 -2.96385,6.93318 -2.97508,8.66667 -0.0168,2.59867 -0.27112,2.8008 -1.44899,1.15179 -1.14772,-1.6068 -1.29932,-1.4102 -0.77108,1 0.36163,1.65 0.0598,3 -0.67061,3 -0.73047,0 -2.45433,1.35 -3.83082,3 -1.37648,1.65 -2.52266,3.7 -2.54705,4.55556 -0.0244,0.85555 -0.6075,1.75555 -1.29578,2 -0.68828,0.24444 -1.53894,2.24444 -1.89036,4.44444 -0.35142,2.2 -0.68828,7.15 -0.74858,11 -0.0603,3.85 -0.70964,7 -1.44298,7 -0.73333,0 -1.33333,-1.12653 -1.33333,-2.50341 0,-1.37687 -0.7517,-3.12726 -1.67045,-3.88975 -1.17209,-0.97275 -2.36543,-0.87816 -4,0.31706 -1.28125,0.93688 -2.32955,2.38727 -2.32955,3.22309 0,0.83582 -0.6,1.51968 -1.33333,1.51968 -0.73334,0 -1.33334,1.2 -1.33334,2.66667 0,1.46666 -0.6,2.66666 -1.33333,2.66666 -0.73333,0 -1.26228,0.45 -1.17544,1 0.0868,0.55 0.0868,4.45 0,8.66667 -0.0868,4.21667 -0.75789,7.66667 -1.49123,7.66667 -0.73333,0 -1.35158,-1.95 -1.37388,-4.33334 -0.0347,-3.71271 -0.24389,-3.98359 -1.46041,-1.8913 -0.78093,1.34312 -1.11886,3.59312 -0.75095,5 0.4041,1.5453 -0.0119,2.55797 -1.05074,2.55797 -0.94582,0 -2.02122,1.15315 -2.38979,2.56257 -0.36857,1.40941 -0.37313,5.19753 -0.0101,8.41806 0.59113,5.24449 0.28375,6.10202 -2.94573,8.21806 -3.15591,2.06783 -3.4961,2.94688 -2.72701,7.04651 0.59352,3.16374 0.41837,4.39945 -0.53965,3.80736 -0.83015,-0.51306 -1.50437,0.40018 -1.62574,2.20209 -0.11405,1.69327 -0.0913,4.42868 0.0505,6.07868 0.15739,1.83132 -0.48412,3 -1.64676,3 -1.11848,0 -2.18909,1.78856 -2.59389,4.33334 -0.37911,2.38333 -1.3875,7.03333 -2.24087,10.33333 -0.85336,3.3 -1.20704,9 -0.78595,12.66667 0.42109,3.66667 1.15403,10.85048 1.62876,15.96403 0.49206,5.30017 1.9213,11.03253 3.3244,13.33333 1.35368,2.21979 2.46349,5.35056 2.46623,6.95729 0.003,1.60672 0.60498,3.29213 1.33832,3.74535 0.73333,0.45323 1.33333,3.11364 1.33333,5.91202 0,4.56081 0.40519,5.16902 3.91063,5.87011 3.44972,0.68994 4.01757,1.49531 4.81805,6.83333 0.57485,3.83338 1.58497,6.05121 2.75605,6.05121 1.5186,0 1.84861,5.11748 1.84861,28.66667 0,27.77778 0.0827,28.66667 2.66666,28.66667 2.44445,0 2.66667,0.88888 2.66667,10.66666 0,9.85102 -0.2082,10.66667 -2.72275,10.66667 -2.53861,0 -2.69642,0.69155 -2.33334,10.22501 l 0.38942,10.22501 3.97592,0.52868 c 2.18675,0.29078 4.28675,0.83884 4.66667,1.21791 0.37991,0.37906 0.69075,14.8899 0.69075,32.2463 0,26.22376 -0.45069,33.81051 -2.66667,44.89043 -2.48058,12.40292 -2.6561,18.31104 -2.51527,84.66662 l 0.1514,71.3334 4.7238,20.6667 c 2.59809,11.3666 6.65136,25.4666 9.00728,31.3333 2.35591,5.8667 5.93807,15.4667 7.96035,21.3333 2.02229,5.8667 7.2983,18.8163 11.72447,28.777 4.42617,9.9607 12.96132,27.2539 18.96701,38.4295 6.00569,11.1755 16.64944,32.1258 23.65278,46.5563 7.00334,14.4305 16.63593,32.2372 21.40576,39.5706 4.76983,7.3333 11.39806,16.8929 14.72941,21.2435 3.33135,4.3506 6.13337,8.9468 6.22671,10.2139 0.0933,1.267 1.23506,3.9295 2.53714,5.9168 1.30208,1.9872 3.50632,3.9109 4.8983,4.2749 2.04757,0.5355 2.53087,1.8991 2.53087,7.1408 0,4.1281 0.96577,8.063 2.66168,10.8445 1.46393,2.4011 2.66393,6.3156 2.66667,8.6989 l 0.005,4.3333 h 8 8 v 6.472 c 0,5.0666 0.72855,7.2581 3.35507,10.0922 1.84529,1.9911 3.00383,4.1885 2.57454,4.8831 -0.42929,0.6946 -1.26846,0.9613 -1.86481,0.5928 -0.59635,-0.3686 -1.11614,1.6384 -1.15508,4.4599 -0.0674,4.8865 0.19411,5.2096 5.50974,6.8056 3.0693,0.9215 6.18054,1.901 6.91388,2.1765 0.73333,0.2755 2.35455,1.2336 3.60271,2.129 1.24816,0.8954 2.63139,1.2659 3.07385,0.8235 0.44245,-0.4425 -0.67052,-2.396 -2.47327,-4.3412 -2.25835,-2.4368 -3.47704,-3.0013 -3.91861,-1.8151 -0.42096,1.1309 -0.95632,0.8067 -1.56011,-0.9449 -0.50558,-1.4667 -1.47544,-3.7086 -2.15524,-4.9819 -0.6798,-1.2734 -1.236,-3.8234 -1.236,-5.6667 0,-1.8433 0.66543,-3.3514 1.47874,-3.3514 0.8133,0 2.96021,1.35 4.77091,3 1.81069,1.65 4.6839,4.3159 6.3849,5.9242 1.701,1.6083 3.30409,3.479 3.56242,4.1571 0.25833,0.6781 1.81592,1.6514 3.46131,2.1629 2.36993,0.7369 2.82517,0.4964 2.19068,-1.157 -0.52204,-1.3605 -0.0549,-2.0872 1.34172,-2.0872 1.17846,0 2.14266,0.6 2.14266,1.3333 0,0.7333 0.68385,1.3333 1.51967,1.3333 0.83582,0 2.31674,1.05 3.29093,2.3334 0.97419,1.2833 1.79034,3.6833 1.81366,5.3333 0.0233,1.65 0.80906,3 1.74608,3 0.93702,0 2.73115,1.2 3.98695,2.6667 1.2558,1.4666 3.43045,2.6666 4.83256,2.6666 1.66062,0 3.05954,1.4638 4.01305,4.199 0.80507,2.3094 1.46376,5.9745 1.46376,8.1445 0,3.5701 0.32571,3.8639 3.42174,3.0868 1.88195,-0.4723 7.88195,-0.4546 13.33333,0.039 9.3076,0.8434 9.9116,1.0921 9.9116,4.0809 0,2.4824 0.89625,3.362 4.07309,3.9974 2.64199,0.5284 3.83448,1.4364 3.394,2.5843 -0.45223,1.1785 0.85963,2.0583 3.92691,2.6338 2.5333,0.4752 4.606,1.6568 4.606,2.6258 0,0.969 1.10122,2.1113 2.44714,2.5385 1.34593,0.4271 4.79593,2.8671 7.66667,5.4221 2.87074,2.555 5.96953,4.6459 6.88619,4.6465 0.91667,6e-4 1.66667,0.601 1.66667,1.3344 0,0.7333 0.95932,1.3333 2.13183,1.3333 1.1725,0 4.1725,0.9684 6.66667,2.1519 2.49416,1.1836 4.53484,2.9194 4.53484,3.8574 0,0.938 0.94907,2.0696 2.10905,2.5147 1.15997,0.4451 5.20997,0.8181 9,0.8287 3.79002,0.011 9.38904,0.8899 12.44226,1.9537 4.42517,1.5419 7.17923,1.6476 13.57626,0.5208 6.45341,-1.1368 7.86677,-1.8258 7.21721,-3.5185 -0.60879,-1.5865 -0.23125,-1.8838 1.53279,-1.2068 1.28729,0.4939 3.19146,0.8981 4.23148,0.8981 1.04002,0 1.89095,0.9 1.89095,2 0,1.2546 1.36651,2.0589 3.66667,2.158 2.01666,0.087 4.42111,0.059 5.34322,-0.061 0.9221,-0.1203 2.7221,0.3713 4,1.0924 1.42309,0.8031 2.49567,0.8266 2.76789,0.061 z"
         id="path3" />
      <path
         style="display:inline;fill:#0000fd"
         d="m 585.15413,1346.0999 c -4.05399,0.532 -6.50791,0.279 -7.13487,-0.7354 -0.52559,-0.8504 -1.78436,-1.2282 -2.79727,-0.8395 -1.0129,0.3887 -4.291,-0.1575 -7.28466,-1.2137 -2.99366,-1.0563 -5.85423,-1.8059 -6.35682,-1.6659 -0.50259,0.14 -2.17104,-0.4444 -3.70766,-1.2987 -2.20682,-1.2268 -3.37891,-1.1434 -5.57823,0.3971 -2.62806,1.8408 -3.11447,1.5191 -8.66448,-5.7301 -3.23406,-4.2242 -9.7827,-13.6803 -14.55253,-21.0136 -4.76983,-7.3334 -14.40242,-25.1401 -21.40576,-39.5706 -7.00334,-14.4305 -17.64709,-35.3808 -23.65278,-46.5563 -6.00569,-11.1756 -14.54084,-28.4688 -18.96701,-38.4295 -4.42617,-9.9607 -9.70218,-22.9103 -11.72447,-28.777 -2.02228,-5.8666 -5.60444,-15.4666 -7.96035,-21.3333 -2.35592,-5.8667 -6.40919,-19.9667 -9.00728,-31.3333 l -4.7238,-20.6667 -0.1514,-71.3334 c -0.14127,-66.56048 0.027,-72.1808 2.51527,-83.99996 2.35066,-11.16564 2.68669,-18.19674 2.83564,-59.33333 0.0929,-25.66667 0.24293,-47.39556 0.33333,-48.28643 0.0904,-0.89086 1.35061,-2.25461 2.80047,-3.03055 2.09376,-1.12055 3.19104,-0.85588 5.33334,1.28642 1.94209,1.94209 2.70294,4.47033 2.71764,9.03056 0.0148,4.58063 0.3781,5.77984 1.31291,4.33333 0.71088,-1.1 1.30169,-4.91419 1.31292,-8.47599 0.0156,-4.95017 0.45356,-6.30977 1.85879,-5.77053 1.28185,0.49189 2.09007,-0.77675 2.66981,-4.19068 0.45728,-2.69288 1.38516,-8.39696 2.06194,-12.67575 0.67679,-4.27879 1.66074,-22.96984 2.18658,-41.53566 0.9242,-32.6311 0.86451,-33.90482 -1.79104,-38.22039 -2.45474,-3.98922 -2.79374,-7.01853 -3.18534,-28.46434 -0.24103,-13.2 -0.42729,-29.7 -0.41391,-36.66667 0.0181,-9.4328 0.61271,-13.75608 2.32896,-16.93379 1.9022,-3.522 2.30463,-7.88746 2.30463,-25 v -20.73288 h 4.52401 c 2.89533,0 4.81538,-0.75928 5.33334,-2.10905 0.44512,-1.15998 0.80932,-5.95998 0.80932,-10.66667 0,-4.70668 0.51714,-8.55761 1.1492,-8.55761 0.63207,0 1.5594,-4.0037 2.06074,-8.89711 0.50135,-4.89341 1.91357,-10.59341 3.13827,-12.66667 1.22471,-2.07325 2.69737,-3.76956 3.2726,-3.76956 0.57522,0 1.04585,-0.86597 1.04585,-1.92439 0,-1.05842 1.1957,-2.76189 2.6571,-3.7855 1.46141,-1.02361 3.05576,-3.90763 3.543,-6.40894 0.48724,-2.50131 1.33241,-4.84783 1.87814,-5.2145 0.54573,-0.36667 1.28591,-2.53334 1.64483,-4.81483 0.35893,-2.28149 1.60997,-5.28149 2.78009,-6.66667 1.17013,-1.38517 3.7856,-5.02327 5.81217,-8.08464 2.02657,-3.06138 10.10074,-12.96138 17.9426,-22 7.84185,-9.03863 18.94186,-20.5278 24.66667,-25.5315 5.72481,-5.00371 16.10874,-12.87911 23.07541,-17.50091 6.96667,-4.62179 15.01781,-9.15776 17.89143,-10.07994 2.87362,-0.92217 7.37362,-2.94677 10,-4.4991 4.59931,-2.71843 6.28316,-2.81725 45.70448,-2.68218 24.60721,0.0843 43.21725,0.71896 46.66667,1.59144 3.15558,0.79815 7.33787,1.78404 9.29396,2.19085 2.1531,0.44779 4.6952,2.58205 6.44208,5.40857 2.63836,4.26895 3.42447,4.6689 9.1768,4.6689 3.46019,0 6.86126,0.56906 7.55792,1.26458 0.69667,0.69551 4.82205,2.19013 9.16752,3.32136 4.34548,1.13124 8.2281,1.72956 8.62806,1.3296 0.39996,-0.39996 -0.0965,-1.23627 -1.10326,-1.85848 -1.15306,-0.71263 0.72326,-1.15106 5.07027,-1.18473 3.7954,-0.0294 6.6115,0.41452 6.25801,0.98649 -0.3535,0.57196 0.26628,2.33772 1.37728,3.92389 1.13351,1.61832 3.44968,2.88396 5.27773,2.88396 1.79175,0 3.25773,0.6 3.25773,1.33334 0,0.73333 2.85,1.40293 6.33333,1.488 3.48334,0.0851 5.28334,0.42906 4,0.76443 -1.28333,0.33537 -2.32414,1.01577 -2.31291,1.512 0.0112,0.49623 0.46123,1.54923 1,2.34001 0.53877,0.79078 3.02176,2.44078 5.51776,3.66667 2.496,1.22589 5.28181,2.22889 6.19069,2.22889 0.90887,0 1.99058,0.88104 2.4038,1.95786 0.41321,1.07683 2.79418,2.81144 5.29102,3.85469 2.49685,1.04325 5.9279,3.01221 7.62456,4.37546 1.69666,1.36326 4.50717,3.82865 6.24557,5.47865 1.7384,1.65 3.66926,3 4.2908,3 0.62154,0 1.47156,0.88989 1.88892,1.97752 0.47005,1.22491 1.62247,1.64612 3.02805,1.10675 1.51157,-0.58004 1.95464,-0.36181 1.32707,0.65362 -0.51817,0.83842 0.28341,2.57373 1.78128,3.85624 1.49787,1.28252 2.7234,3.10438 2.7234,4.04858 0,0.9442 1.2,2.7442 2.66666,4 1.46667,1.2558 2.66667,2.76185 2.66667,3.34678 0,0.58493 1.5,3.43966 3.33333,6.34385 1.83334,2.90419 3.33334,6.14226 3.33334,7.19572 0,1.05347 0.65361,2.13326 1.45248,2.39955 0.79887,0.26629 2.33284,3.76629 3.40883,7.77778 1.07599,4.01149 2.97237,13.29362 4.21418,20.62695 1.70003,10.03927 2.05412,17.28621 1.43323,29.33333 -0.45354,8.8 -1.28508,21.40001 -1.84787,28.00001 -0.5628,6.6 -1.44688,12.6 -1.96463,13.33333 -0.51776,0.73333 -2.33106,5.83333 -4.02956,11.33333 -1.6985,5.5 -3.64402,10.72255 -4.32339,11.60567 -0.67936,0.88311 -2.27731,3.58311 -3.55101,6 -1.27369,2.41688 -3.99891,7.39433 -6.05604,11.061 -2.05713,3.66667 -5.09028,8.46667 -6.74034,10.66667 -1.65006,2.2 -5.27739,6.4 -8.06074,9.33333 -2.78335,2.93334 -6.80716,7.73334 -8.9418,10.66667 -2.13464,2.93333 -4.73141,7.35661 -5.77059,9.8295 -1.36793,3.2552 -1.88942,10.46631 -1.88942,26.12668 0,20.28831 -0.17394,21.78794 -2.80318,24.16736 -1.54174,1.39526 -3.64174,4.15846 -4.66666,6.14044 -1.02492,1.98198 -1.89996,5.28339 -1.94453,7.33648 -0.0599,2.75967 -1.60434,4.94954 -5.9239,8.39954 -3.21357,2.56667 -7.42221,6.97195 -9.35251,9.78952 -1.93031,2.81757 -3.75444,6.41757 -4.05362,8 -0.29917,1.58243 -0.87985,4.42742 -1.29038,6.3222 -0.56867,2.62463 -2.40593,4.13288 -7.71493,6.33334 -3.83267,1.58855 -7.37484,2.88828 -7.87147,2.88828 -0.49664,0 -8.33526,3.3 -17.41917,7.33333 -15.45519,6.86224 -17.18817,7.33334 -26.9766,7.33334 -5.75322,0 -12.41473,-0.7067 -14.80336,-1.57044 -2.45542,-0.88789 -4.65469,-2.77125 -5.06021,-4.33333 -0.39448,-1.5196 -2.22096,-4.5629 -4.05884,-6.7629 -1.83787,-2.2 -3.94604,-4.6 -4.68481,-5.33333 -0.73878,-0.73334 -2.40056,-2.32432 -3.69287,-3.53551 -1.2923,-1.21119 -5.71722,-2.62003 -9.83315,-3.13075 l -7.4835,-0.92857 0.57953,7.13074 c 0.37972,4.6722 0.14832,6.51374 -0.67114,5.34119 -1.04308,-1.49253 -1.72293,-1.49462 -4.09602,-0.0126 -1.56495,0.97732 -2.84536,2.23263 -2.84536,2.78956 0,0.55693 -1.2,1.0126 -2.66667,1.0126 -1.72754,0 -2.66666,0.88889 -2.66666,2.52402 0,1.38821 0.94907,2.88821 2.10905,3.33333 1.15997,0.44513 2.35997,0.80932 2.66666,0.80932 0.30669,0 0.55762,-0.9 0.55762,-2 0,-1.1 0.6,-2 1.33333,-2 0.73334,0 1.33334,1.2 1.33334,2.66667 0,1.77777 0.88889,2.66666 2.66666,2.66666 1.56699,0 2.66667,0.88889 2.66667,2.15551 0,1.49907 -0.81211,1.94314 -2.66667,1.45816 -1.46666,-0.38354 -2.66666,-0.22631 -2.66666,0.3494 0,0.57571 1.8,1.79233 4,2.7036 2.2,0.91127 4,2.08775 4,2.61441 0,0.52665 -1.5,1.641 -3.33334,2.47632 -1.83333,0.83532 -3.34252,2.28163 -3.35375,3.21402 -0.0153,1.26612 -0.31502,1.23012 -1.18426,-0.14224 -0.64011,-1.01062 -1.86069,-1.40681 -2.7124,-0.88043 -1.07679,0.6655 -0.716,1.67912 1.18427,3.32722 1.50304,1.30358 2.72362,3.49978 2.71239,4.88043 -0.0172,2.10875 -0.22715,2.19037 -1.31291,0.51027 -1.04517,-1.61728 -1.29641,-1.42592 -1.31292,1 -0.0112,1.65 -0.63925,3 -1.3956,3 -0.75635,0 -1.71462,0.88458 -2.1295,1.96574 -0.41488,1.08115 0.20931,2.92936 1.38708,4.10714 1.96633,1.96632 2.21124,1.79228 2.99542,-2.12863 l 0.85401,-4.27003 1.69063,3.15897 c 1.18328,2.21098 1.27455,3.6603 0.30416,4.82955 -1.0265,1.23686 -0.73828,1.6759 1.11012,1.69101 2.08266,0.017 2.16684,0.2289 0.50774,1.27781 -1.58394,1.00141 -1.6518,1.59445 -0.33333,2.91292 0.91054,0.91054 1.65552,2.43552 1.65552,3.38885 0,0.95334 -0.6,1.73334 -1.33333,1.73334 -0.73334,0 -1.33334,-0.84383 -1.33334,-1.87518 0,-1.21873 -0.93351,-1.63105 -2.66666,-1.17782 -1.46667,0.38354 -2.60686,1.67737 -2.53376,2.87517 0.0731,1.19781 0.61329,3.67783 1.20042,5.51116 1.02414,3.19788 1.07292,3.21142 1.20043,0.33333 0.0731,-1.65 0.69247,-3 1.37639,-3 0.68392,0 1.62435,1.2 2.08985,2.66667 0.4655,1.46667 1.70593,2.66667 2.75652,2.66667 1.16275,0 1.91015,1.34152 1.91015,3.42857 0,1.88571 -0.8991,4.32767 -1.998,5.42657 -1.0989,1.0989 -2.36361,3.4547 -2.81046,5.23511 -0.44686,1.78042 -0.46659,4.13846 -0.0438,5.2401 0.42274,1.10164 2.00628,2.00298 3.51897,2.00298 1.5127,0 3.0922,0.89083 3.51001,1.97961 0.4178,1.08878 2.73366,4.13473 5.14634,6.76876 2.63697,2.8789 4.60475,4.13502 4.93336,3.14918 0.35311,-1.05932 1.79929,-0.38734 4.08454,1.89791 1.94583,1.94583 4.01515,3.53788 4.59848,3.53788 0.58334,0 1.06442,4.65 1.06907,10.33333 0.008,9.77213 0.27956,10.72078 5,17.46732 2.74535,3.92369 4.99154,7.86549 4.99154,8.75955 0,0.89407 1.50162,2.93121 3.33693,4.52699 1.83531,1.59579 4.05975,5.60399 4.94321,8.90712 0.88345,3.30313 1.96135,6.00569 2.39533,6.00569 0.43398,0 0.5439,2.1 0.24425,4.66667 -0.30215,2.58816 0.0496,4.66666 0.78986,4.66666 0.73407,0 1.74646,1.65 2.24976,3.66667 0.5033,2.01667 1.67711,4.56667 2.60847,5.66667 0.93135,1.1 2.44431,5 3.36213,8.66666 0.91781,3.66669 2.50905,8.92879 3.53607,11.69369 1.02703,2.7648 1.86732,6.4719 1.86732,8.2381 0,1.7661 0.82991,4.041 1.84423,5.0553 1.01433,1.0143 2.2061,5.4072 2.6484,9.7619 0.44229,4.3547 1.41231,13.3177 2.15558,19.9177 0.74328,6.6 1.00383,13.65 0.579,15.6667 -0.52975,2.5147 -1.60705,3.6666 -3.42909,3.6666 -2.44875,0 -2.58351,0.5855 -1.7219,7.4816 0.58852,4.7104 0.42554,7.7971 -0.44001,8.3333 -0.75612,0.4685 -1.81046,3.8518 -2.34299,7.5185 -0.53253,3.6666 -0.51992,6.2452 0.028,5.7301 0.54793,-0.5151 1.72279,-0.2099 2.6108,0.6781 0.88802,0.888 1.97887,3.8594 2.42411,6.6031 0.4527,2.7897 0.25876,4.9887 -0.43996,4.9887 -0.68723,0 -1.24951,1.1571 -1.24951,2.5714 0,1.4143 -0.79868,3.3701 -1.77485,4.3463 -0.97617,0.9761 -2.23114,4.769 -2.78881,8.4285 -0.55768,3.6596 -1.03046,7.2538 -1.05063,7.9871 -0.0202,0.7333 0.38378,2.5333 0.89766,4 0.86903,2.4803 0.80103,2.505 -0.97302,0.354 -1.04905,-1.2719 -2.29803,-1.9219 -2.77552,-1.4444 -0.47749,0.4775 -0.86816,3.6947 -0.86816,7.1494 0,3.6924 -0.75301,6.9061 -1.82709,7.7975 -1.0049,0.834 -2.1905,3.7574 -2.63465,6.4966 -0.44416,2.7391 -1.4054,7.8385 -2.13609,11.332 -0.7307,3.4935 -2.84511,7.9874 -4.69869,9.9864 -1.85358,1.999 -3.37015,4.6472 -3.37015,5.8848 0,1.2376 -1.5,3.43 -3.33333,4.8721 -1.83334,1.4421 -3.33334,2.959 -3.33334,3.3709 0,0.4119 -1.42572,2.8499 -3.16827,5.4176 -1.74255,2.5678 -3.58396,4.2531 -4.09202,3.745 -0.50806,-0.508 -0.73234,1.7677 -0.49839,5.0572 l 0.42535,5.9809 10.92488,0.386 c 9.84631,0.348 11.06856,0.1176 12.38024,-2.3333 0.80046,-1.4957 2.33426,-2.7194 3.40846,-2.7194 1.10535,0 1.99878,-1.3021 2.05835,-3 0.0579,-1.65 0.4079,-2.25 0.77778,-1.3333 0.36988,0.9167 1.82251,1.6667 3.22807,1.6667 1.40555,0 2.55555,-0.6 2.55555,-1.3334 0,-0.769 4.18519,-1.3333 9.88889,-1.3333 5.43889,0 10.08889,-0.5591 10.33334,-1.2425 0.24444,-0.6833 5.54444,-1.5371 11.77778,-1.8974 6.23333,-0.3602 15.08333,-1.0866 19.66666,-1.6141 4.58334,-0.5276 8.33334,-1.3821 8.33334,-1.8989 0,-0.5168 -1.35,-1.5907 -3,-2.3865 -2.34145,-1.1292 0.57655,-1.4666 13.29278,-1.537 14.05065,-0.078 16.98643,0.2884 21.33333,2.6615 2.77231,1.5135 6.03673,3.9135 7.25428,5.3333 1.21755,1.4199 3.5514,2.5816 5.18634,2.5816 1.63495,0 3.76969,1.05 4.74388,2.3333 0.97419,1.2834 1.79033,2.8188 1.81365,3.412 0.0233,0.5933 -0.55759,0.7079 -1.29092,0.2547 -0.73334,-0.4532 -1.33334,-0.2291 -1.33334,0.4981 0,0.7272 1.19645,1.7019 2.65878,2.1661 1.46232,0.4641 3.56232,1.7474 4.66666,2.8517 1.10434,1.1043 2.0079,1.365 2.0079,0.5793 0,-0.7857 1.68683,-1.4285 3.74851,-1.4285 3.45727,0 3.74215,0.3884 3.66666,5 -0.0687,4.1988 0.39847,5.0682 2.91562,5.4257 2.55949,0.3635 2.78748,0.8181 1.56039,3.1109 -1.12062,2.0939 -0.94274,3.2314 0.80782,5.1658 1.23468,1.3643 3.8325,2.6644 5.77294,2.889 3.01324,0.3489 3.52608,1.0426 3.51447,4.7535 -0.009,2.9357 0.7256,4.5796 2.2653,5.0683 1.47571,0.4684 1.98822,1.5216 1.45416,2.9883 -0.7143,1.9619 -0.43744,1.9251 2.06804,-0.2749 2.85898,-2.5103 2.89275,-2.5064 2.89275,0.3334 0,1.5803 -0.60508,2.8733 -1.34463,2.8733 -0.79704,0 -0.66643,1.086 0.32073,2.6667 0.91595,1.4666 2.75644,2.6666 4.08999,2.6666 1.33354,0 2.07591,0.5643 1.64971,1.2539 -0.42621,0.6896 0.55152,2.4896 2.17272,4 1.62121,1.5104 3.46826,2.7461 4.10457,2.7461 0.6363,0 4.12452,2.9212 7.7516,6.4915 3.62708,3.5703 8.98046,8.0703 11.89641,10 2.91595,1.9297 6.5146,3.5085 7.99699,3.5085 1.48239,0 2.69525,0.8596 2.69525,1.9102 0,1.0506 1.25485,2.3084 2.78856,2.7952 2.0359,0.6462 2.59078,1.6413 2.0558,3.6871 -0.40301,1.5412 -0.0844,3.5833 0.70804,4.5381 0.90038,1.0849 0.94088,1.7361 0.10798,1.7361 -0.78711,0 -1.06117,2.41 -0.66935,5.8862 0.60438,5.362 0.38947,5.9261 -2.4132,6.3334 -2.89052,0.42 -2.93995,0.5831 -0.81702,2.6954 1.55151,1.5437 1.79399,2.5361 0.77373,3.1667 -1.04387,0.6451 -0.94775,1.2593 0.32311,2.0645 1.22594,0.7768 0.41232,1.1529 -2.52432,1.1667 -2.38333,0.011 -4.33333,0.6204 -4.33333,1.3538 0,0.7333 -1.2,1.3333 -2.66667,1.3333 -1.46666,0 -2.66666,-0.6 -2.66666,-1.3333 0,-0.8381 -8.66243,-1.3334 -23.32062,-1.3334 -21.04889,0 -23.97009,-0.2836 -29.98776,-2.9111 -3.66692,-1.6012 -7.00333,-3.9705 -7.41425,-5.2652 -0.41091,-1.2946 -1.91106,-2.7234 -3.33365,-3.1749 -1.42259,-0.4515 -3.1919,-0.4468 -3.9318,0.011 -0.73989,0.4573 -1.34526,0.2904 -1.34526,-0.371 0,-0.6613 -2.55,-2.4272 -5.66667,-3.9242 -3.11667,-1.497 -8.21667,-3.4873 -11.33333,-4.423 -3.11667,-0.9357 -5.66667,-2.2052 -5.66667,-2.8212 0,-0.6159 -2.42727,-1.1199 -5.39394,-1.1199 -3.94912,0 -6.27057,-0.8766 -8.66667,-3.2727 -1.8,-1.8 -3.27272,-3.9251 -3.27272,-4.7224 0,-0.7973 -1.2,-2.7378 -2.66667,-4.312 -1.46667,-1.5743 -2.66667,-3.6492 -2.66667,-4.611 0,-0.9617 -0.85,-1.7485 -1.88889,-1.7485 -1.03889,0 -2.13928,-0.75 -2.44532,-1.6667 -0.39154,-1.1728 -3.65557,-1.5957 -11.01454,-1.4271 -8.98917,0.2059 -11.64408,0.8604 -18.90178,4.6598 -4.64402,2.4311 -8.77791,5.4733 -9.18642,6.7604 -0.40851,1.2871 -1.51014,2.3402 -2.44805,2.3402 -0.93791,0 -3.72651,1.0083 -6.19689,2.2407 -2.47037,1.2324 -5.77995,3.6309 -7.35461,5.33 -1.57466,1.6991 -4.89563,3.4753 -7.37993,3.9471 -2.4843,0.4718 -5.56691,1.3944 -6.85024,2.0503 -1.28333,0.6558 -2.34252,2.2213 -2.35375,3.4788 -0.0177,1.9821 -0.21057,2.0203 -1.449,0.2865 -1.14772,-1.6068 -1.29931,-1.4102 -0.77107,1 0.42667,1.9468 0.0297,3 -1.13087,3 -0.98361,0 -3.46496,-0.6375 -5.51411,-1.4166 -2.6297,-0.9998 -3.86465,-0.9998 -4.19792,0 -0.25969,0.7791 -1.32217,1.4166 -2.36106,1.4166 -1.03889,0 -1.88889,0.6 -1.88889,1.3333 0,0.7333 -2.28686,1.3333 -5.08192,1.3333 -3.27128,0 -6.1216,0.9686 -8,2.7186 -1.60494,1.4953 -2.91808,3.2953 -2.91808,4 0,0.7048 -1.2,1.2814 -2.66667,1.2814 -1.46666,0 -2.66666,0.6429 -2.66666,1.4286 0,0.7857 -0.99009,2.4187 -2.20021,3.6288 -1.21011,1.2101 -3.67869,2.9672 -5.48574,3.9047 -1.80705,0.9375 -4.38154,1.7046 -5.72111,1.7046 -1.33956,0 -2.80639,-0.6 -3.25961,-1.3333 -0.45322,-0.7334 -1.93864,-1.3334 -3.30091,-1.3334 -1.36228,0 -2.67888,0.6061 -2.92577,1.3467 -0.2469,0.7407 -3.1469,1.875 -6.44445,2.5206 -3.29755,0.6457 -5.09554,1.2609 -3.99554,1.3672 1.49262,0.1443 1.32349,0.6042 -0.66666,1.8128 -1.46667,0.8907 -2.66667,2.3694 -2.66667,3.2861 0,0.9166 -0.3,1.6245 -0.66667,1.5729 -0.36666,-0.052 -2.36701,0.5527 -4.44522,1.3429 -2.07821,0.7901 -4.46766,1.0107 -5.30989,0.4902 -0.84224,-0.5206 -2.59189,-1.0246 -3.88811,-1.1201 -1.29623,-0.096 -2.35678,0.3258 -2.35678,0.9361 0,0.6103 -1.95,1.1001 -4.33333,1.0883 -2.38334,-0.012 -7.114,0.3435 -10.51258,0.7895 z"
         id="path2" />
    </g>
  </g>
</svg>
