<?xml version="1.0" encoding="UTF-8" standalone="no"?>
<!-- Created with Inkscape (http://www.inkscape.org/) -->

<svg
   width="60mm"
   height="60mm"
   viewBox="0 0 60 60"
   version="1.1"
   id="svg1"
   xml:space="preserve"
   inkscape:version="1.3 (0e150ed6c4, 2023-07-21)"
   sodipodi:docname="braillerap_logo.svg"
   xmlns:inkscape="http://www.inkscape.org/namespaces/inkscape"
   xmlns:sodipodi="http://sodipodi.sourceforge.net/DTD/sodipodi-0.dtd"
   xmlns:xlink="http://www.w3.org/1999/xlink"
   xmlns="http://www.w3.org/2000/svg"
   xmlns:svg="http://www.w3.org/2000/svg"><sodipodi:namedview
     id="namedview1"
     pagecolor="#ffffff"
     bordercolor="#666666"
     borderopacity="1.0"
     inkscape:showpageshadow="2"
     inkscape:pageopacity="0.0"
     inkscape:pagecheckerboard="0"
     inkscape:deskcolor="#d1d1d1"
     inkscape:document-units="mm"
     inkscape:zoom="2.8284271"
     inkscape:cx="28.284271"
     inkscape:cy="110.48543"
     inkscape:window-width="1920"
     inkscape:window-height="1017"
     inkscape:window-x="-8"
     inkscape:window-y="-8"
     inkscape:window-maximized="1"
     inkscape:current-layer="layer1"
     showgrid="false" /><defs
     id="defs1" /><g
     inkscape:label="Calque 1"
     inkscape:groupmode="layer"
     id="layer1"
     transform="translate(-36.513718,-78.909989)"><circle
       style="fill:#007fff;fill-opacity:1;stroke:#007fff;stroke-width:1.30271;stroke-opacity:1"
       id="path1"
       cx="66.513718"
       cy="108.90999"
       r="29.348644" /><text
       xml:space="preserve"
       style="font-style:normal;font-variant:normal;font-weight:bold;font-stretch:normal;font-size:8.46667px;line-height:125%;font-family:Calibri;-inkscape-font-specification:'Calibri, Bold';font-variant-ligatures:normal;font-variant-caps:normal;font-variant-numeric:normal;font-variant-east-asian:normal;letter-spacing:0px;word-spacing:0px;fill:#ffffff;fill-opacity:1;stroke:none;stroke-width:0.264583px;stroke-linecap:butt;stroke-linejoin:miter;stroke-opacity:1"
       x="48.025967"
       y="113.04805"
       id="text1"><tspan
         sodipodi:role="line"
         id="tspan1"
         style="font-style:normal;font-variant:normal;font-weight:bold;font-stretch:normal;font-size:8.46667px;font-family:Calibri;-inkscape-font-specification:'Calibri, Bold';font-variant-ligatures:normal;font-variant-caps:normal;font-variant-numeric:normal;font-variant-east-asian:normal;fill:#ffffff;fill-opacity:1;stroke-width:0.264583px"
         x="48.025967"
         y="113.04805">BrailleRAP</tspan></text><text
       xml:space="preserve"
       style="font-style:normal;font-variant:normal;font-weight:300;font-stretch:normal;font-size:3.52778px;line-height:125%;font-family:Calibri;-inkscape-font-specification:'Calibri, Light';font-variant-ligatures:normal;font-variant-caps:normal;font-variant-numeric:normal;font-variant-east-asian:normal;letter-spacing:0px;word-spacing:0px;fill:#000000;fill-opacity:1;stroke:none;stroke-width:0.264583px;stroke-linecap:butt;stroke-linejoin:miter;stroke-opacity:1"
       x="45.232487"
       y="116.87864"
       id="text2"><tspan
         sodipodi:role="line"
         id="tspan2"
         style="font-style:normal;font-variant:normal;font-weight:300;font-stretch:normal;font-size:3.52778px;font-family:Calibri;-inkscape-font-specification:'Calibri, Light';font-variant-ligatures:normal;font-variant-caps:normal;font-variant-numeric:normal;font-variant-east-asian:normal;stroke-width:0.264583px"
         x="45.232487"
         y="116.87864">Open Source Braille Embosser</tspan></text><text
       xml:space="preserve"
       style="font-style:normal;font-variant:normal;font-weight:normal;font-stretch:normal;font-size:4.23333px;line-height:125%;font-family:'DejaVu Serif';-inkscape-font-specification:'DejaVu Serif, Normal';font-variant-ligatures:normal;font-variant-caps:normal;font-variant-numeric:normal;font-variant-east-asian:normal;letter-spacing:0px;word-spacing:0px;fill:#ffffff;fill-opacity:1;stroke:none;stroke-width:0.264583px;stroke-linecap:butt;stroke-linejoin:miter;stroke-opacity:1"
       x="45.739792"
       y="122.4743"
       id="text3"><tspan
         sodipodi:role="line"
         id="tspan3"
         style="font-style:normal;font-variant:normal;font-weight:normal;font-stretch:normal;font-size:4.23333px;font-family:'DejaVu Serif';-inkscape-font-specification:'DejaVu Serif, Normal';font-variant-ligatures:normal;font-variant-caps:normal;font-variant-numeric:normal;font-variant-east-asian:normal;fill:#ffffff;fill-opacity:1;stroke-width:0.264583px"
         x="45.739792"
         y="122.4743">⠨⠃⠗⠁⠊⠇⠇⠑⠨⠨⠗⠁⠏</tspan></text><circle
       style="fill:none;fill-opacity:1;stroke:#007fff;stroke-width:4.072;stroke-dasharray:none;stroke-opacity:1"
       id="path3-1"
       cx="77.923035"
       cy="101.06166"
       r="26.013771"
       transform="matrix(-0.3575996,0.93387501,0.93387501,0.3575996,0,0)" /><circle
       style="fill:none;fill-opacity:1;stroke:#007fff;stroke-width:4.072;stroke-dasharray:none;stroke-opacity:1"
       id="path3"
       cx="-126.37663"
       cy="17.731583"
       r="26.013771"
       transform="rotate(-113.42644)" /><text
       xml:space="preserve"
       style="font-style:normal;font-variant:normal;font-weight:300;font-stretch:normal;font-size:2.82222px;line-height:125%;font-family:Calibri;-inkscape-font-specification:'Calibri, Light';font-variant-ligatures:normal;font-variant-caps:normal;font-variant-numeric:normal;font-variant-east-asian:normal;letter-spacing:0px;word-spacing:0px;fill:#000000;fill-opacity:1;stroke:none;stroke-width:0.264583px;stroke-linecap:butt;stroke-linejoin:miter;stroke-opacity:1"
       id="text4"
       transform="translate(0,0.5291667)"><textPath
         xlink:href="#path3"
         id="textPath4"><tspan
           id="tspan4"
           style="font-style:normal;font-variant:normal;font-weight:300;font-stretch:normal;font-size:2.82222px;font-family:Calibri;-inkscape-font-specification:'Calibri, Light';font-variant-ligatures:normal;font-variant-caps:normal;font-variant-numeric:normal;font-variant-east-asian:normal;stroke-width:0.264583px">www.braillerap.org</tspan></textPath></text><text
       xml:space="preserve"
       style="font-style:normal;font-variant:normal;font-weight:300;font-stretch:normal;font-size:2.82222px;line-height:125%;font-family:Calibri;-inkscape-font-specification:'Calibri, Light';font-variant-ligatures:normal;font-variant-caps:normal;font-variant-numeric:normal;font-variant-east-asian:normal;letter-spacing:0px;word-spacing:0px;fill:#000000;fill-opacity:1;stroke:none;stroke-width:0.264583px;stroke-linecap:butt;stroke-linejoin:miter;stroke-opacity:1"
       id="text5"
       transform="translate(0,1.0583333)"><textPath
         xlink:href="#path3-1"
         id="textPath5"><tspan
           id="tspan5"
           style="font-style:normal;font-variant:normal;font-weight:300;font-stretch:normal;font-size:2.82222px;font-family:Calibri;-inkscape-font-specification:'Calibri, Light';font-variant-ligatures:normal;font-variant-caps:normal;font-variant-numeric:normal;font-variant-east-asian:normal;stroke-width:0.264583px">www.forgecc.org</tspan></textPath></text><ellipse
       style="fill:none;fill-opacity:1;stroke:#fafdff;stroke-width:0.456648;stroke-dasharray:none;stroke-opacity:1"
       id="path6"
       cx="66.513725"
       cy="108.90999"
       rx="24.158812"
       ry="24.051199" /><g
       style="fill:#000000;fill-opacity:1;stroke:none"
       id="g10"
       transform="matrix(0.09756536,0,0,0.09756536,57.488925,86.103719)"><path
         d="m 159.5,165 h -4 c -0.27614,0 -0.5,-0.22386 -0.5,-0.5 V 155 h 5 v 9.5 c 0,0.27614 -0.22386,0.5 -0.5,0.5 z m -10,0 h -9 c -0.27614,0 -0.5,-0.22386 -0.5,-0.5 V 160 h 9.5 c 0.27614,0 0.5,0.22386 0.5,0.5 v 4 c 0,0.27614 -0.22386,0.5 -0.5,0.5 z m -15,0 h -14 c -0.27614,0 -0.5,-0.22386 -0.5,-0.5 v -9 c 0,-0.27614 -0.22386,-0.5 -0.5,-0.5 H 110 v -4.5 c 0,-0.27614 -0.22386,-0.5 -0.5,-0.5 H 105 v -5 h 4.5 c 0.27614,0 0.5,-0.22386 0.5,-0.5 v -14 c 0,-0.27614 -0.22386,-0.5 -0.5,-0.5 h -4 c -0.27614,0 -0.5,0.22386 -0.5,0.5 v 4 c 0,0.27614 -0.22386,0.5 -0.5,0.5 H 100 v -14.5 c 0,-0.27614 -0.223858,-0.5 -0.5,-0.5 H 95 v -5 h 9.5 c 0.27614,0 0.5,-0.22386 0.5,-0.5 v -4 c 0,-0.27614 0.22386,-0.5 0.5,-0.5 h 9 c 0.27614,0 0.5,0.22386 0.5,0.5 v 4.5 h -4.5 c -0.27614,0 -0.5,0.22386 -0.5,0.5 v 4 c 0,0.27614 -0.22386,0.5 -0.5,0.5 h -4 c -0.27614,0 -0.5,0.22386 -0.5,0.5 v 4 c 0,0.27614 0.22386,0.5 0.5,0.5 h 9 c 0.27614,0 0.5,0.22386 0.5,0.5 v 19 c 0,0.27614 0.22386,0.5 0.5,0.5 h 4 c 0.27614,0 0.5,-0.22386 0.5,-0.5 V 120 h 14.5 c 0.27614,0 0.5,-0.22386 0.5,-0.5 v -9 c 0,-0.27614 -0.22386,-0.5 -0.5,-0.5 h -4 c -0.27614,0 -0.5,0.22386 -0.5,0.5 v 4 c 0,0.27614 -0.22386,0.5 -0.5,0.5 H 120 v -4.5 c 0,-0.27614 0.22386,-0.5 0.5,-0.5 h 4 c 0.27614,0 0.5,-0.22386 0.5,-0.5 v -4 c 0,-0.27614 -0.22386,-0.5 -0.5,-0.5 h -9 c -0.27614,0 -0.5,-0.22386 -0.5,-0.5 v -4 c 0,-0.27614 0.22386,-0.5 0.5,-0.5 h 4 c 0.27614,0 0.5,-0.223858 0.5,-0.5 v -9 c 0,-0.276142 -0.22386,-0.5 -0.5,-0.5 h -4 c -0.27614,0 -0.5,-0.223858 -0.5,-0.5 v -4 c 0,-0.276142 0.22386,-0.5 0.5,-0.5 H 130 v 9.5 c 0,0.276142 0.22386,0.5 0.5,0.5 h 9 c 0.27614,0 0.5,0.223858 0.5,0.5 v 14 c 0,0.27614 0.22386,0.5 0.5,0.5 h 9 c 0.27614,0 0.5,-0.22386 0.5,-0.5 v -4 c 0,-0.27614 0.22386,-0.5 0.5,-0.5 h 4 c 0.27614,0 0.5,-0.22386 0.5,-0.5 v -19 c 0,-0.276142 0.22386,-0.5 0.5,-0.5 h 4 c 0.27614,0 0.5,0.223858 0.5,0.5 v 4 c 0,0.276142 0.22386,0.5 0.5,0.5 h 4 c 0.27614,0 0.5,0.223858 0.5,0.5 v 4 c 0,0.276142 -0.22386,0.5 -0.5,0.5 h -4 c -0.27614,0 -0.5,0.223858 -0.5,0.5 v 4 c 0,0.276142 0.22386,0.5 0.5,0.5 h 4 c 0.27614,0 0.5,0.22386 0.5,0.5 v 14 c 0,0.27614 -0.22386,0.5 -0.5,0.5 h -4 c -0.27614,0 -0.5,0.22386 -0.5,0.5 v 4 c 0,0.27614 -0.22386,0.5 -0.5,0.5 H 155 v -4.5 c 0,-0.27614 -0.22386,-0.5 -0.5,-0.5 h -4 c -0.27614,0 -0.5,0.22386 -0.5,0.5 v 4 c 0,0.27614 0.22386,0.5 0.5,0.5 h 4.5 v 5 h -9.5 c -0.27614,0 -0.5,0.22386 -0.5,0.5 v 4 c 0,0.27614 0.22386,0.5 0.5,0.5 h 9 c 0.27614,0 0.5,-0.22386 0.5,-0.5 V 125 h 9.5 c 0.27614,0 0.5,0.22386 0.5,0.5 v 4 c 0,0.27614 -0.22386,0.5 -0.5,0.5 h -4 c -0.27614,0 -0.5,0.22386 -0.5,0.5 v 4 c 0,0.27614 -0.22386,0.5 -0.5,0.5 h -4 c -0.27614,0 -0.5,0.22386 -0.5,0.5 v 4 c 0,0.27614 -0.22386,0.5 -0.5,0.5 H 150 v -4.5 c 0,-0.27614 -0.22386,-0.5 -0.5,-0.5 h -4 c -0.27614,0 -0.5,0.22386 -0.5,0.5 v 4 c 0,0.27614 0.22386,0.5 0.5,0.5 h 4.5 v 4.5 c 0,0.27614 -0.22386,0.5 -0.5,0.5 h -4 c -0.27614,0 -0.5,0.22386 -0.5,0.5 v 9 c 0,0.27614 -0.22386,0.5 -0.5,0.5 H 140 v -9.5 c 0,-0.27614 -0.22386,-0.5 -0.5,-0.5 h -4 c -0.27614,0 -0.5,0.22386 -0.5,0.5 v 4 c 0,0.27614 -0.22386,0.5 -0.5,0.5 h -9 c -0.27614,0 -0.5,0.22386 -0.5,0.5 v 9 c 0,0.27614 0.22386,0.5 0.5,0.5 h 4 c 0.27614,0 0.5,-0.22386 0.5,-0.5 v -4 c 0,-0.27614 0.22386,-0.5 0.5,-0.5 h 9.5 v 5 h -4.5 c -0.27614,0 -0.5,0.22386 -0.5,0.5 v 4 c 0,0.27614 -0.22386,0.5 -0.5,0.5 z m -25,0 h -4 c -0.27614,0 -0.5,-0.22386 -0.5,-0.5 v -4 c 0,-0.27614 -0.22386,-0.5 -0.5,-0.5 H 100 v -4.5 c 0,-0.27614 -0.223858,-0.5 -0.5,-0.5 H 95 v -4.5 C 95,150.22386 94.776142,150 94.5,150 H 85 v -4.5 c 0,-0.27614 0.223858,-0.5 0.5,-0.5 H 100 v 4.5 c 0,0.27614 0.22386,0.5 0.5,0.5 h 4.5 v 4.5 c 0,0.27614 0.22386,0.5 0.5,0.5 h 4.5 v 9.5 c 0,0.27614 -0.22386,0.5 -0.5,0.5 z m -10,0 h -4 C 95.223858,165 95,164.77614 95,164.5 V 160 h 5 v 4.5 c 0,0.27614 -0.223858,0.5 -0.5,0.5 z m -30,0 h -4 c -0.276142,0 -0.5,-0.22386 -0.5,-0.5 v -4 c 0,-0.27614 -0.223858,-0.5 -0.5,-0.5 h -4 c -0.276142,0 -0.5,-0.22386 -0.5,-0.5 v -4 c 0,-0.27614 0.223858,-0.5 0.5,-0.5 h 4 c 0.276142,0 0.5,-0.22386 0.5,-0.5 V 150 h 5 v 14.5 c 0,0.27614 -0.223858,0.5 -0.5,0.5 z m -15,0 h -34 c -0.276142,0 -0.5,-0.22386 -0.5,-0.5 v -34 c 0,-0.27614 0.223858,-0.5 0.5,-0.5 h 34 c 0.276142,0 0.5,0.22386 0.5,0.5 v 34 c 0,0.27614 -0.223858,0.5 -0.5,0.5 z m 40,-5 h -4 c -0.276142,0 -0.5,-0.22386 -0.5,-0.5 v -4 c 0,-0.27614 0.223858,-0.5 0.5,-0.5 H 95 v 5 z m -10,0 h -9 c -0.276142,0 -0.5,-0.22386 -0.5,-0.5 v -9 C 75,150.22386 74.776142,150 74.5,150 H 70 v -4.5 C 70,145.22386 69.776142,145 69.5,145 H 65 v -5 h 9.5 c 0.276142,0 0.5,0.22386 0.5,0.5 v 4 c 0,0.27614 0.223858,0.5 0.5,0.5 h 4 c 0.276142,0 0.5,0.22386 0.5,0.5 v 4 c 0,0.27614 0.223858,0.5 0.5,0.5 H 85 v 9.5 c 0,0.27614 -0.223858,0.5 -0.5,0.5 z M 50,159.5 v -24 c 0,-0.27614 -0.223858,-0.5 -0.5,-0.5 h -24 c -0.276142,0 -0.5,0.22386 -0.5,0.5 v 24 c 0,0.27614 0.223858,0.5 0.5,0.5 h 24 c 0.276142,0 0.5,-0.22386 0.5,-0.5 z M 164.5,155 H 160 v -9.5 c 0,-0.27614 0.22386,-0.5 0.5,-0.5 h 4 c 0.27614,0 0.5,0.22386 0.5,0.5 v 9 c 0,0.27614 -0.22386,0.5 -0.5,0.5 z m -10,0 h -4 c -0.27614,0 -0.5,-0.22386 -0.5,-0.5 v -4 c 0,-0.27614 0.22386,-0.5 0.5,-0.5 h 4 c 0.27614,0 0.5,0.22386 0.5,0.5 v 4.5 z m -110,0 h -14 c -0.276142,0 -0.5,-0.22386 -0.5,-0.5 v -14 c 0,-0.27614 0.223858,-0.5 0.5,-0.5 h 14 c 0.276142,0 0.5,0.22386 0.5,0.5 v 14 c 0,0.27614 -0.223858,0.5 -0.5,0.5 z m 20,-5 h -4 c -0.276142,0 -0.5,-0.22386 -0.5,-0.5 v -4 c 0,-0.27614 0.223858,-0.5 0.5,-0.5 H 65 v 5 z m 40,-5 H 100 v -5 h 4.5 c 0.27614,0 0.5,0.22386 0.5,0.5 v 4.5 z m 35.5,-5.5 v -14 c 0,-0.27614 -0.22386,-0.5 -0.5,-0.5 h -14 c -0.27614,0 -0.5,0.22386 -0.5,0.5 v 14 c 0,0.27614 0.22386,0.5 0.5,0.5 h 14 c 0.27614,0 0.5,-0.22386 0.5,-0.5 z M 99.5,140 h -19 c -0.276142,0 -0.5,-0.22386 -0.5,-0.5 v -4 c 0,-0.27614 0.223858,-0.5 0.5,-0.5 h 9 c 0.276142,0 0.5,-0.22386 0.5,-0.5 V 130 h 4.5 c 0.276142,0 0.5,0.22386 0.5,0.5 v 4 c 0,0.27614 0.223858,0.5 0.5,0.5 h 4.5 v 5 z m -35,0 h -4 c -0.276142,0 -0.5,-0.22386 -0.5,-0.5 v -14 c 0,-0.27614 -0.223858,-0.5 -0.5,-0.5 h -9 c -0.276142,0 -0.5,-0.22386 -0.5,-0.5 v -4 c 0,-0.27614 0.223858,-0.5 0.5,-0.5 h 4 c 0.276142,0 0.5,-0.22386 0.5,-0.5 V 115 h 9.5 c 0.276142,0 0.5,0.22386 0.5,0.5 v 14 c 0,0.27614 0.223858,0.5 0.5,0.5 h 4 c 0.276142,0 0.5,0.22386 0.5,0.5 v 4 c 0,0.27614 -0.223858,0.5 -0.5,0.5 h -4 c -0.276142,0 -0.5,0.22386 -0.5,0.5 v 4.5 z m 70,-5 h -4 c -0.27614,0 -0.5,-0.22386 -0.5,-0.5 v -4 c 0,-0.27614 0.22386,-0.5 0.5,-0.5 h 4 c 0.27614,0 0.5,0.22386 0.5,0.5 v 4 c 0,0.27614 -0.22386,0.5 -0.5,0.5 z m -45,-5 h -9 c -0.276142,0 -0.5,-0.22386 -0.5,-0.5 v -4 c 0,-0.27614 0.223858,-0.5 0.5,-0.5 H 90 v 5 z m 5,-5 H 90 v -4.5 c 0,-0.27614 0.223858,-0.5 0.5,-0.5 H 95 v 4.5 c 0,0.27614 -0.223858,0.5 -0.5,0.5 z m -55,0 h -9 c -0.276142,0 -0.5,-0.22386 -0.5,-0.5 v -4 c 0,-0.27614 0.223858,-0.5 0.5,-0.5 H 40 v 4.5 c 0,0.27614 -0.223858,0.5 -0.5,0.5 z m -15,0 h -4 c -0.276142,0 -0.5,-0.22386 -0.5,-0.5 v -4 c 0,-0.27614 0.223858,-0.5 0.5,-0.5 h 4 c 0.276142,0 0.5,0.22386 0.5,0.5 v 4 c 0,0.27614 -0.223858,0.5 -0.5,0.5 z M 145,119.5 v -4 c 0,-0.27614 -0.22386,-0.5 -0.5,-0.5 h -4 c -0.27614,0 -0.5,0.22386 -0.5,0.5 v 4 c 0,0.27614 0.22386,0.5 0.5,0.5 h 4 c 0.27614,0 0.5,-0.22386 0.5,-0.5 z m -25.5,0.5 h -4 c -0.27614,0 -0.5,-0.22386 -0.5,-0.5 V 115 h 5 v 5 z m -75,0 H 40 v -4.5 c 0,-0.27614 0.223858,-0.5 0.5,-0.5 h 4 c 0.276142,0 0.5,0.22386 0.5,0.5 v 4 c 0,0.27614 -0.223858,0.5 -0.5,0.5 z m 50,-5 h -9 c -0.276142,0 -0.5,-0.22386 -0.5,-0.5 v -9 C 85,105.22386 84.776142,105 84.5,105 H 75 v -4.5 C 75,100.22386 74.776142,100 74.5,100 H 70 V 95.5 C 70,95.223858 69.776142,95 69.5,95 h -9 C 60.223858,95 60,94.776142 60,94.5 v -14 C 60,80.223858 60.223858,80 60.5,80 h 4 c 0.276142,0 0.5,-0.223858 0.5,-0.5 v -4 C 65,75.223858 64.776142,75 64.5,75 h -4 C 60.223858,75 60,74.776142 60,74.5 v -4 C 60,70.223858 60.223858,70 60.5,70 H 70 v 9.5 c 0,0.276142 0.223858,0.5 0.5,0.5 h 4 c 0.276142,0 0.5,-0.223858 0.5,-0.5 v -4 C 75,75.223858 75.223858,75 75.5,75 H 80 v 4.5 c 0,0.276142 0.223858,0.5 0.5,0.5 h 9 c 0.276142,0 0.5,-0.223858 0.5,-0.5 v -4 C 90,75.223858 89.776142,75 89.5,75 H 80 V 70.5 C 80,70.223858 80.223858,70 80.5,70 h 4 c 0.276142,0 0.5,-0.223858 0.5,-0.5 v -4 C 85,65.223858 85.223858,65 85.5,65 H 90 v 4.5 c 0,0.276142 0.223858,0.5 0.5,0.5 h 4 c 0.276142,0 0.5,-0.223858 0.5,-0.5 v -4 C 95,65.223858 94.776142,65 94.5,65 H 90 v -5 h 9.5 c 0.276142,0 0.5,0.223858 0.5,0.5 v 4 c 0,0.276142 0.22386,0.5 0.5,0.5 h 4.5 v 4.5 c 0,0.276142 0.22386,0.5 0.5,0.5 h 4.5 v 4.5 c 0,0.276142 -0.22386,0.5 -0.5,0.5 h -14 C 95.223858,75 95,75.223858 95,75.5 v 9 c 0,0.276142 0.223858,0.5 0.5,0.5 h 9.5 v 9.5 c 0,0.276142 -0.22386,0.5 -0.5,0.5 h -4 c -0.27614,0 -0.5,-0.223858 -0.5,-0.5 v -4 C 100,90.223858 99.776142,90 99.5,90 h -9 C 90.223858,90 90,90.223858 90,90.5 v 14 c 0,0.27614 0.223858,0.5 0.5,0.5 h 9.5 v 4.5 c 0,0.27614 -0.223858,0.5 -0.5,0.5 h -4 c -0.276142,0 -0.5,0.22386 -0.5,0.5 v 4.5 z m -40,0 h -4 C 50.223858,115 50,114.77614 50,114.5 V 110 h 4.5 c 0.276142,0 0.5,0.22386 0.5,0.5 v 4.5 z m -20,0 h -4 c -0.276142,0 -0.5,-0.22386 -0.5,-0.5 v -9 c 0,-0.27614 0.223858,-0.5 0.5,-0.5 H 35 v 9.5 c 0,0.27614 -0.223858,0.5 -0.5,0.5 z m -10,0 h -4 c -0.276142,0 -0.5,-0.22386 -0.5,-0.5 v -4 c 0,-0.27614 0.223858,-0.5 0.5,-0.5 h 4 c 0.276142,0 0.5,0.22386 0.5,0.5 v 4 c 0,0.27614 -0.223858,0.5 -0.5,0.5 z m 50,-5 h -4 C 70.223858,110 70,109.77614 70,109.5 V 105 h 5 v 4.5 c 0,0.27614 -0.223858,0.5 -0.5,0.5 z m -10,0 h -4 C 60.223858,110 60,109.77614 60,109.5 V 105 h 5 v 4.5 c 0,0.27614 -0.223858,0.5 -0.5,0.5 z m -15,0 h -4 c -0.276142,0 -0.5,-0.22386 -0.5,-0.5 v -4 C 45,105.22386 44.776142,105 44.5,105 H 35 V 95 h 4.5 C 39.776142,95 40,94.776142 40,94.5 V 90 h 4.5 c 0.276142,0 0.5,0.223858 0.5,0.5 v 4 c 0,0.276142 0.223858,0.5 0.5,0.5 H 50 v 4.5 c 0,0.276142 0.223858,0.5 0.5,0.5 h 9 c 0.276142,0 0.5,0.22386 0.5,0.5 v 4.5 h -9.5 c -0.276142,0 -0.5,0.22386 -0.5,0.5 v 4.5 z m 85.5,-5.5 v -4 c 0,-0.27614 -0.22386,-0.5 -0.5,-0.5 h -4 c -0.27614,0 -0.5,0.22386 -0.5,0.5 v 4 c 0,0.27614 0.22386,0.5 0.5,0.5 h 4 c 0.27614,0 0.5,-0.22386 0.5,-0.5 z M 104.5,105 H 100 v -4.5 c 0,-0.27614 0.22386,-0.5 0.5,-0.5 h 4 c 0.27614,0 0.5,0.22386 0.5,0.5 v 4 c 0,0.27614 -0.22386,0.5 -0.5,0.5 z m -35,0 H 65 v -4.5 c 0,-0.27614 0.223858,-0.5 0.5,-0.5 H 70 v 5 z M 85,99.5 v -4 C 85,95.223858 84.776142,95 84.5,95 H 80 v -5 h 4.5 c 0.276142,0 0.5,-0.223858 0.5,-0.5 v -4 C 85,85.223858 84.776142,85 84.5,85 h -4 C 80.223858,85 80,85.223858 80,85.5 V 90 H 75.5 C 75.223858,90 75,90.223858 75,90.5 v 4 c 0,0.276142 0.223858,0.5 0.5,0.5 H 80 v 4.5 c 0,0.276142 0.223858,0.5 0.5,0.5 h 4 c 0.276142,0 0.5,-0.223858 0.5,-0.5 z M 54.5,95 H 50 V 90.5 C 50,90.223858 50.223858,90 50.5,90 h 4 c 0.276142,0 0.5,0.223858 0.5,0.5 v 4 c 0,0.276142 -0.223858,0.5 -0.5,0.5 z m -20,0 h -4 C 30.223858,95 30,94.776142 30,94.5 v -4 C 30,90.223858 30.223858,90 30.5,90 H 35 v 5 z m 115,-5 h -4 c -0.27614,0 -0.5,-0.223858 -0.5,-0.5 v -4 c 0,-0.276142 0.22386,-0.5 0.5,-0.5 h 4 c 0.27614,0 0.5,0.223858 0.5,0.5 v 4 c 0,0.276142 -0.22386,0.5 -0.5,0.5 z m -10,0 h -4 c -0.27614,0 -0.5,-0.223858 -0.5,-0.5 v -4 C 135,85.223858 134.77614,85 134.5,85 H 130 v -4.5 c 0,-0.276142 -0.22386,-0.5 -0.5,-0.5 h -4 c -0.27614,0 -0.5,-0.223858 -0.5,-0.5 v -4 c 0,-0.276142 0.22386,-0.5 0.5,-0.5 h 4 c 0.27614,0 0.5,-0.223858 0.5,-0.5 v -4 c 0,-0.276142 -0.22386,-0.5 -0.5,-0.5 h -4 C 125.22386,70 125,69.776142 125,69.5 V 60 h 14.5 c 0.27614,0 0.5,0.223858 0.5,0.5 V 70 h -4.5 c -0.27614,0 -0.5,0.223858 -0.5,0.5 v 9 c 0,0.276142 0.22386,0.5 0.5,0.5 h 4 c 0.27614,0 0.5,0.223858 0.5,0.5 v 9 c 0,0.276142 -0.22386,0.5 -0.5,0.5 z M 70,89.5 v -4 C 70,85.223858 69.776142,85 69.5,85 h -4 C 65.223858,85 65,85.223858 65,85.5 v 4 c 0,0.276142 0.223858,0.5 0.5,0.5 h 4 C 69.776142,90 70,89.776142 70,89.5 Z M 39.5,90 H 35 V 85.5 C 35,85.223858 34.776142,85 34.5,85 h -4 C 30.223858,85 30,84.776142 30,84.5 V 80 h 4.5 C 34.776142,80 35,79.776142 35,79.5 V 75 h 4.5 c 0.276142,0 0.5,0.223858 0.5,0.5 V 90 Z m -15,0 h -4 C 20.223858,90 20,89.776142 20,89.5 v -14 C 20,75.223858 20.223858,75 20.5,75 H 30 v 5 H 25.5 C 25.223858,80 25,80.223858 25,80.5 v 9 c 0,0.276142 -0.223858,0.5 -0.5,0.5 z m 85,-5 H 105 v -4.5 c 0,-0.276142 0.22386,-0.5 0.5,-0.5 h 4 c 0.27614,0 0.5,0.223858 0.5,0.5 v 4 c 0,0.276142 -0.22386,0.5 -0.5,0.5 z m -55,0 h -9 C 45.223858,85 45,84.776142 45,84.5 v -9 C 45,75.223858 45.223858,75 45.5,75 H 50 v 4.5 c 0,0.276142 0.223858,0.5 0.5,0.5 h 4 c 0.276142,0 0.5,0.223858 0.5,0.5 v 4 c 0,0.276142 -0.223858,0.5 -0.5,0.5 z m 105,-5 h -9 c -0.27614,0 -0.5,-0.223858 -0.5,-0.5 v -4 c 0,-0.276142 -0.22386,-0.5 -0.5,-0.5 h -9 C 140.22386,75 140,74.776142 140,74.5 V 70 h 9.5 c 0.27614,0 0.5,-0.223858 0.5,-0.5 v -4 c 0,-0.276142 -0.22386,-0.5 -0.5,-0.5 h -4 c -0.27614,0 -0.5,-0.223858 -0.5,-0.5 v -4 c 0,-0.276142 0.22386,-0.5 0.5,-0.5 h 9 c 0.27614,0 0.5,0.223858 0.5,0.5 v 9 c 0,0.276142 0.22386,0.5 0.5,0.5 h 4.5 v 9.5 c 0,0.276142 -0.22386,0.5 -0.5,0.5 z m -40,-5 h -4 c -0.27614,0 -0.5,-0.223858 -0.5,-0.5 v -4 C 115,70.223858 114.77614,70 114.5,70 H 110 V 65.5 C 110,65.223858 109.77614,65 109.5,65 H 105 V 55 h 4.5 c 0.27614,0 0.5,-0.223858 0.5,-0.5 v -4 c 0,-0.276142 0.22386,-0.5 0.5,-0.5 h 4.5 v 4.5 c 0,0.276142 0.22386,0.5 0.5,0.5 h 4 c 0.27614,0 0.5,-0.223858 0.5,-0.5 V 50 h 4.5 c 0.27614,0 0.5,0.223858 0.5,0.5 V 60 h -9.5 c -0.27614,0 -0.5,0.223858 -0.5,0.5 v 4 c 0,0.276142 0.22386,0.5 0.5,0.5 h 4 c 0.27614,0 0.5,0.223858 0.5,0.5 v 9 c 0,0.276142 -0.22386,0.5 -0.5,0.5 z m -65,0 H 50 V 70.5 C 50,70.223858 50.223858,70 50.5,70 h 4 c 0.276142,0 0.5,0.223858 0.5,0.5 v 4 c 0,0.276142 -0.223858,0.5 -0.5,0.5 z m -20,0 H 30 V 70.5 C 30,70.223858 29.776142,70 29.5,70 h -9 C 20.223858,70 20,69.776142 20,69.5 v -4 C 20,65.223858 20.223858,65 20.5,65 h 4 c 0.276142,0 0.5,-0.223858 0.5,-0.5 v -4 C 25,60.223858 25.223858,60 25.5,60 h 4 c 0.276142,0 0.5,0.223858 0.5,0.5 v 4 c 0,0.276142 0.223858,0.5 0.5,0.5 H 35 v 10 z m 130,-5 H 160 v -9.5 c 0,-0.276142 0.22386,-0.5 0.5,-0.5 h 4 c 0.27614,0 0.5,0.223858 0.5,0.5 v 9 c 0,0.276142 -0.22386,0.5 -0.5,0.5 z m -90,0 H 70 V 65.5 C 70,65.223858 69.776142,65 69.5,65 h -24 C 45.223858,65 45,64.776142 45,64.5 v -4 C 45,60.223858 45.223858,60 45.5,60 h 14 c 0.276142,0 0.5,-0.223858 0.5,-0.5 v -14 C 60,45.223858 60.223858,45 60.5,45 H 65 v 9.5 c 0,0.276142 0.223858,0.5 0.5,0.5 H 70 v 4.5 c 0,0.276142 0.223858,0.5 0.5,0.5 h 4 C 74.776142,60 75,59.776142 75,59.5 V 55 h 4.5 C 79.776142,55 80,54.776142 80,54.5 V 50 h 5 v 4.5 c 0,0.276142 0.223858,0.5 0.5,0.5 H 90 v 5 H 80.5 C 80.223858,60 80,60.223858 80,60.5 v 4 c 0,0.276142 -0.223858,0.5 -0.5,0.5 h -4 C 75.223858,65 75,65.223858 75,65.5 v 4 c 0,0.276142 -0.223858,0.5 -0.5,0.5 z m -35,-5 H 35 V 60.5 C 35,60.223858 35.223858,60 35.5,60 h 4 c 0.276142,0 0.5,0.223858 0.5,0.5 v 4 c 0,0.276142 -0.223858,0.5 -0.5,0.5 z m 125,-10 h -34 c -0.27614,0 -0.5,-0.223858 -0.5,-0.5 v -34 c 0,-0.276142 0.22386,-0.5 0.5,-0.5 h 34 c 0.27614,0 0.5,0.223858 0.5,0.5 v 34 c 0,0.276142 -0.22386,0.5 -0.5,0.5 z m -60,0 h -4 C 100.22386,55 100,54.776142 100,54.5 V 40 h 4.5 c 0.27614,0 0.5,0.223858 0.5,0.5 V 55 Z m -10,0 H 90 v -5 h 4.5 c 0.276142,0 0.5,0.223858 0.5,0.5 v 4 c 0,0.276142 -0.223858,0.5 -0.5,0.5 z m -20,0 H 70 V 50.5 C 70,50.223858 70.223858,50 70.5,50 H 75 v 5 z m -20,0 h -34 C 20.223858,55 20,54.776142 20,54.5 v -34 C 20,20.223858 20.223858,20 20.5,20 h 34 c 0.276142,0 0.5,0.223858 0.5,0.5 v 34 C 55,54.776142 54.776142,55 54.5,55 Z M 160,49.5 v -24 c 0,-0.276142 -0.22386,-0.5 -0.5,-0.5 h -24 c -0.27614,0 -0.5,0.223858 -0.5,0.5 v 24 c 0,0.276142 0.22386,0.5 0.5,0.5 h 24 c 0.27614,0 0.5,-0.223858 0.5,-0.5 z M 119.5,50 H 115 v -5 h 4.5 c 0.27614,0 0.5,0.223858 0.5,0.5 V 50 Z m -30,0 H 85 V 45.5 C 85,45.223858 84.776142,45 84.5,45 H 80 V 40.5 C 80,40.223858 79.776142,40 79.5,40 h -9 C 70.223858,40 70,40.223858 70,40.5 v 4 C 70,44.776142 69.776142,45 69.5,45 H 65 V 40.5 C 65,40.223858 64.776142,40 64.5,40 h -4 C 60.223858,40 60,39.776142 60,39.5 v -9 C 60,30.223858 60.223858,30 60.5,30 h 4 C 64.776142,30 65,29.776142 65,29.5 V 25 h 5 v 4.5 c 0,0.276142 0.223858,0.5 0.5,0.5 h 4 c 0.276142,0 0.5,0.223858 0.5,0.5 v 4 c 0,0.276142 0.223858,0.5 0.5,0.5 H 85 v 4.5 c 0,0.276142 0.223858,0.5 0.5,0.5 H 90 v 10 z m -10,0 H 75 V 45.5 C 75,45.223858 75.223858,45 75.5,45 H 80 v 5 z M 50,49.5 v -24 C 50,25.223858 49.776142,25 49.5,25 h -24 C 25.223858,25 25,25.223858 25,25.5 v 24 c 0,0.276142 0.223858,0.5 0.5,0.5 h 24 C 49.776142,50 50,49.776142 50,49.5 Z M 154.5,45 h -14 c -0.27614,0 -0.5,-0.223858 -0.5,-0.5 v -14 c 0,-0.276142 0.22386,-0.5 0.5,-0.5 h 14 c 0.27614,0 0.5,0.223858 0.5,0.5 v 14 c 0,0.276142 -0.22386,0.5 -0.5,0.5 z m -40,0 h -4 c -0.27614,0 -0.5,-0.223858 -0.5,-0.5 v -4 c 0,-0.276142 0.22386,-0.5 0.5,-0.5 h 4 c 0.27614,0 0.5,0.223858 0.5,0.5 V 45 Z m -70,0 h -14 C 30.223858,45 30,44.776142 30,44.5 v -14 C 30,30.223858 30.223858,30 30.5,30 h 14 c 0.276142,0 0.5,0.223858 0.5,0.5 v 14 c 0,0.276142 -0.223858,0.5 -0.5,0.5 z m 80,-5 h -4 c -0.27614,0 -0.5,-0.223858 -0.5,-0.5 v -4 c 0,-0.276142 -0.22386,-0.5 -0.5,-0.5 h -4 c -0.27614,0 -0.5,-0.223858 -0.5,-0.5 v -4 C 115,30.223858 114.77614,30 114.5,30 H 110 v -9.5 c 0,-0.276142 0.22386,-0.5 0.5,-0.5 h 4 c 0.27614,0 0.5,0.223858 0.5,0.5 v 4 c 0,0.276142 0.22386,0.5 0.5,0.5 h 4 c 0.27614,0 0.5,0.223858 0.5,0.5 v 4 c 0,0.276142 0.22386,0.5 0.5,0.5 h 4 c 0.27614,0 0.5,0.223858 0.5,0.5 v 9 c 0,0.276142 -0.22386,0.5 -0.5,0.5 z m -25,0 H 90 v -5 h 4.5 c 0.276142,0 0.5,-0.223858 0.5,-0.5 v -9 C 95,25.223858 95.223858,25 95.5,25 h 4 c 0.276142,0 0.5,-0.223858 0.5,-0.5 v -4 c 0,-0.276142 0.22386,-0.5 0.5,-0.5 h 4 c 0.27614,0 0.5,0.223858 0.5,0.5 v 9 c 0,0.276142 0.22386,0.5 0.5,0.5 h 4.5 v 4.5 c 0,0.276142 -0.22386,0.5 -0.5,0.5 h -9 c -0.27614,0 -0.5,0.223858 -0.5,0.5 V 40 Z m -10,-5 H 85 V 25 h 4.5 c 0.276142,0 0.5,0.223858 0.5,0.5 V 35 Z m -5,-10 H 70 V 20.5 C 70,20.223858 70.223858,20 70.5,20 h 14 c 0.276142,0 0.5,0.223858 0.5,0.5 V 25 Z m -20,0 h -4 C 60.223858,25 60,24.776142 60,24.5 v -4 C 60,20.223858 60.223858,20 60.5,20 h 4 c 0.276142,0 0.5,0.223858 0.5,0.5 V 25 Z"
         id="path10"
         style="fill:#000000;fill-opacity:1" /></g></g></svg>
